<svg width="62" height="62" viewBox="0 0 62 62" fill="none" xmlns="http://www.w3.org/2000/svg">
    <path d="M38.3929 45.4108H23.781C23.5588 45.4108 23.3456 45.3225 23.1885 45.1654C23.0314 45.0083 22.9431 44.7952 22.9431 44.573C22.9431 44.3508 23.0314 44.1377 23.1885 43.9805C23.3456 43.8234 23.5588 43.7351 23.781 43.7351H38.3929C38.6774 43.7513 38.9623 43.7091 39.23 43.6113C39.4978 43.5135 39.7427 43.3621 39.9499 43.1663C40.1571 42.9705 40.3221 42.7345 40.4349 42.4728C40.5477 42.211 40.6059 41.9289 40.6059 41.6439C40.6059 41.3589 40.5477 41.0768 40.4349 40.815C40.3221 40.5533 40.1571 40.3173 39.9499 40.1215C39.7427 39.9257 39.4978 39.7743 39.23 39.6765C38.9623 39.5787 38.6774 39.5365 38.3929 39.5527H30.5725C30.3629 39.5529 30.1608 39.4746 30.0061 39.3331C27.277 36.8264 23.7054 35.437 19.9998 35.4405H10.6948C10.4726 35.4405 10.2595 35.3523 10.1023 35.1951C9.9452 35.038 9.85693 34.8249 9.85693 34.6027C9.85693 34.3805 9.9452 34.1674 10.1023 34.0103C10.2595 33.8531 10.4726 33.7649 10.6948 33.7649H19.9998C24.0104 33.7614 27.884 35.2239 30.8917 37.877H38.3912C38.8992 37.8555 39.4064 37.9371 39.8821 38.1167C40.3578 38.2964 40.7922 38.5704 41.1593 38.9223C41.5264 39.2742 41.8184 39.6967 42.018 40.1644C42.2175 40.6322 42.3204 41.1354 42.3204 41.6439C42.3204 42.1524 42.2175 42.6556 42.018 43.1234C41.8184 43.5911 41.5264 44.0136 41.1593 44.3655C40.7922 44.7174 40.3578 44.9914 39.8821 45.1711C39.4064 45.3507 38.8992 45.4323 38.3912 45.4108H38.3929Z" fill="#282828"/>
    <path d="M46.6519 50.2116C46.4642 50.2117 46.2819 50.1486 46.1343 50.0327C45.9866 49.9167 45.8822 49.7545 45.8378 49.5721C45.7933 49.3897 45.8114 49.1977 45.8892 49.0268C45.9669 48.8559 46.0998 48.7161 46.2665 48.6298L48.4533 47.4987C48.5513 47.4445 48.6592 47.4106 48.7705 47.3988C48.8819 47.387 48.9945 47.3977 49.1017 47.4302C49.2089 47.4627 49.3084 47.5164 49.3945 47.588C49.4806 47.6596 49.5514 47.7478 49.6029 47.8473C49.6543 47.9468 49.6852 48.0556 49.6939 48.1672C49.7026 48.2789 49.6888 48.3911 49.6533 48.4973C49.6178 48.6036 49.5614 48.7016 49.4874 48.7857C49.4134 48.8697 49.3233 48.9381 49.2224 48.9867L47.0357 50.1178C46.9173 50.1797 46.7856 50.2119 46.6519 50.2116Z" fill="#282828"/>
    <path d="M31.5386 55.9919C29.5727 55.9923 27.6216 55.6521 25.7718 54.9865L10.4058 49.4324C10.2994 49.3973 10.2012 49.3413 10.1169 49.2675C10.0325 49.1938 9.96386 49.1039 9.91488 49.0031C9.86591 48.9024 9.83763 48.7928 9.83173 48.681C9.82583 48.5691 9.84242 48.4572 9.88052 48.3518C9.91862 48.2465 9.97746 48.1499 10.0536 48.0677C10.1297 47.9855 10.2215 47.9193 10.3236 47.8732C10.4257 47.8271 10.536 47.802 10.6479 47.7992C10.7599 47.7965 10.8713 47.8162 10.9756 47.8573L26.3407 53.4122C28.631 54.2345 31.084 54.501 33.4975 54.1897C33.6066 54.1755 33.7175 54.1829 33.8238 54.2116C33.93 54.2403 34.0296 54.2896 34.1168 54.3567C34.204 54.4238 34.2772 54.5075 34.3321 54.6029C34.3869 54.6983 34.4225 54.8036 34.4367 54.9127C34.4509 55.0219 34.4434 55.1328 34.4148 55.239C34.3861 55.3453 34.3368 55.4449 34.2697 55.5321C34.2025 55.6193 34.1189 55.6925 34.0235 55.7473C33.9281 55.8022 33.8228 55.8378 33.7136 55.852C32.9924 55.945 32.2659 55.9918 31.5386 55.9919Z" fill="#282828"/>
    <path d="M39.237 54.0322C39.0494 54.0322 38.8672 53.9693 38.7196 53.8535C38.572 53.7377 38.4676 53.5758 38.423 53.3936C38.3784 53.2114 38.3962 53.0195 38.4736 52.8486C38.551 52.6777 38.6835 52.5378 38.8499 52.4512L41.045 51.3109C41.1427 51.2601 41.2494 51.2292 41.3591 51.2197C41.4688 51.2102 41.5793 51.2224 41.6842 51.2557C41.7892 51.2889 41.8866 51.3425 41.9708 51.4133C42.0551 51.4842 42.1245 51.5709 42.1753 51.6686C42.226 51.7663 42.257 51.8731 42.2664 51.9827C42.2759 52.0924 42.2637 52.2029 42.2305 52.3078C42.1972 52.4128 42.1437 52.5102 42.0728 52.5944C42.002 52.6787 41.9152 52.7482 41.8175 52.7989L39.6224 53.9383C39.5033 54 39.3711 54.0322 39.237 54.0322Z" fill="#282828"/>
    <path d="M54.0582 46.3911C53.8702 46.3913 53.6876 46.3283 53.5398 46.2122C53.392 46.0961 53.2875 45.9337 53.2431 45.7511C53.1987 45.5684 53.217 45.3762 53.2951 45.2052C53.3732 45.0342 53.5065 44.8945 53.6736 44.8084L58.0111 42.5722L57.5335 42.1533C56.6075 41.3351 55.4815 40.7767 54.2698 40.5346C53.0582 40.2925 51.804 40.3755 50.6347 40.7751L41.1161 44.0342C41.0117 44.0712 40.901 44.0871 40.7904 44.081C40.6798 44.075 40.5715 44.047 40.4718 43.9988C40.372 43.9506 40.2829 43.8831 40.2094 43.8002C40.1359 43.7174 40.0796 43.6207 40.0437 43.5159C40.0078 43.4112 39.9931 43.3003 40.0003 43.1898C40.0076 43.0793 40.0366 42.9713 40.0859 42.872C40.1351 42.7728 40.2035 42.6844 40.2871 42.6118C40.3708 42.5392 40.468 42.4839 40.5731 42.4491L50.091 39.1899C51.5403 38.6948 53.0948 38.592 54.5967 38.8917C56.0986 39.1914 57.4945 39.8831 58.6428 40.8965L60.0403 42.1265C60.1427 42.2165 60.2216 42.33 60.2701 42.4574C60.3187 42.5848 60.3354 42.722 60.3189 42.8573C60.3024 42.9926 60.2531 43.1218 60.1754 43.2338C60.0976 43.3457 59.9938 43.437 59.8727 43.4997L54.4436 46.2989C54.3243 46.36 54.1921 46.3916 54.0582 46.3911Z" fill="#282828"/>
    <path d="M8.10535 53.0067H2.51362C2.29141 53.0067 2.0783 52.9184 1.92118 52.7613C1.76405 52.6041 1.67578 52.391 1.67578 52.1688V31C1.67578 30.7778 1.76405 30.5647 1.92118 30.4076C2.0783 30.2504 2.29141 30.1622 2.51362 30.1622H8.10535C9.01379 30.1642 9.88446 30.5259 10.5268 31.1683C11.1692 31.8107 11.531 32.6813 11.5329 33.5898V49.5782C11.5312 50.4868 11.1695 51.3577 10.5271 52.0002C9.88473 52.6428 9.01394 53.0047 8.10535 53.0067ZM3.35146 51.331H8.10535C8.56993 51.3303 9.01528 51.1454 9.3437 50.8168C9.67213 50.4882 9.85682 50.0428 9.85727 49.5782V33.5898C9.85682 33.1253 9.6721 32.6799 9.34365 32.3515C9.0152 32.023 8.56985 31.8383 8.10535 31.8378H3.35146V51.331Z" fill="#282828"/>
    <path d="M39.3785 33.5135C36.6443 33.5135 33.9715 32.7027 31.6981 31.1837C29.4247 29.6647 27.6528 27.5056 26.6065 24.9795C25.5602 22.4535 25.2864 19.6739 25.8198 16.9922C26.3533 14.3105 27.6699 11.8473 29.6033 9.91392C31.5366 7.98056 33.9999 6.66392 36.6815 6.1305C39.3632 5.59709 42.1428 5.87086 44.6689 6.91719C47.1949 7.96352 49.354 9.73542 50.873 12.0088C52.3921 14.2822 53.2028 16.955 53.2028 19.6892C53.1986 23.3543 51.7408 26.8682 49.1491 29.4598C46.5575 32.0515 43.0437 33.5093 39.3785 33.5135ZM39.3785 7.54055C36.9757 7.54055 34.6269 8.25305 32.6291 9.58796C30.6313 10.9229 29.0741 12.8202 28.1546 15.0401C27.2351 17.26 26.9946 19.7027 27.4633 22.0593C27.9321 24.4159 29.0891 26.5806 30.7881 28.2796C32.4872 29.9786 34.6518 31.1356 37.0084 31.6044C39.365 32.0732 41.8077 31.8326 44.0276 30.9131C46.2475 29.9936 48.1448 28.4365 49.4798 26.4386C50.8147 24.4408 51.5272 22.092 51.5272 19.6892C51.5234 16.4683 50.2422 13.3805 47.9647 11.103C45.6873 8.82547 42.5994 7.54432 39.3785 7.54055Z" fill="#282828"/>
    <path d="M39.3786 20.527C38.5046 20.5272 37.6502 20.2682 36.9234 19.7827C36.1966 19.2973 35.6302 18.6072 35.2956 17.7998C34.961 16.9924 34.8734 16.1039 35.0438 15.2467C35.2142 14.3895 35.635 13.6021 36.2529 12.984C36.8708 12.366 37.6582 11.945 38.5154 11.7745C39.3725 11.6039 40.2611 11.6914 41.0685 12.0258C41.876 12.3602 42.5662 12.9266 43.0517 13.6533C43.5373 14.3799 43.7965 15.2343 43.7965 16.1083C43.7965 16.3305 43.7082 16.5436 43.5511 16.7007C43.394 16.8578 43.1809 16.9461 42.9586 16.9461C42.7364 16.9461 42.5233 16.8578 42.3662 16.7007C42.2091 16.5436 42.1208 16.3305 42.1208 16.1083C42.1206 15.5659 41.9597 15.0358 41.6583 14.585C41.3568 14.1341 40.9285 13.7828 40.4274 13.5754C39.9263 13.3679 39.375 13.3138 38.8431 13.4197C38.3112 13.5256 37.8226 13.7868 37.4392 14.1703C37.0558 14.5539 36.7947 15.0425 36.689 15.5744C36.5832 16.1064 36.6376 16.6577 36.8452 17.1587C37.0527 17.6597 37.4042 18.088 37.8552 18.3893C38.3061 18.6905 38.8362 18.8514 39.3786 18.8514C39.6008 18.8514 39.8139 18.9396 39.971 19.0967C40.1281 19.2539 40.2164 19.467 40.2164 19.6892C40.2164 19.9114 40.1281 20.1245 39.971 20.2816C39.8139 20.4388 39.6008 20.527 39.3786 20.527Z" fill="#F4CF87"/>
    <path d="M39.3784 27.6889C38.2069 27.6875 37.0839 27.2215 36.2556 26.3931C35.4273 25.5647 34.9616 24.4415 34.9604 23.2701C34.9604 23.0479 35.0487 22.8348 35.2058 22.6777C35.363 22.5205 35.5761 22.4323 35.7983 22.4323C36.0205 22.4323 36.2336 22.5205 36.3907 22.6777C36.5479 22.8348 36.6361 23.0479 36.6361 23.2701C36.6363 23.8124 36.7973 24.3425 37.0987 24.7934C37.4001 25.2442 37.8284 25.5956 38.3295 25.803C38.8306 26.0104 39.382 26.0646 39.9139 25.9587C40.4458 25.8528 40.9343 25.5916 41.3177 25.208C41.7011 24.8245 41.9622 24.3359 42.068 23.8039C42.1737 23.272 42.1194 22.7207 41.9118 22.2197C41.7042 21.7186 41.3527 21.2904 40.9018 20.9891C40.4508 20.6878 39.9207 20.527 39.3784 20.527C39.1562 20.527 38.9431 20.4388 38.7859 20.2816C38.6288 20.1245 38.5405 19.9114 38.5405 19.6892C38.5405 19.467 38.6288 19.2539 38.7859 19.0967C38.9431 18.9396 39.1562 18.8513 39.3784 18.8513C40.5503 18.8513 41.6742 19.3169 42.5029 20.1456C43.3316 20.9743 43.7971 22.0982 43.7971 23.2701C43.7971 24.442 43.3316 25.566 42.5029 26.3946C41.6742 27.2233 40.5503 27.6889 39.3784 27.6889Z" fill="#F4CF87"/>
    <path d="M39.3784 29.1191C39.1562 29.1191 38.9431 29.0308 38.7859 28.8737C38.6288 28.7166 38.5405 28.5035 38.5405 28.2812V11.0972C38.5405 10.875 38.6288 10.6619 38.7859 10.5047C38.9431 10.3476 39.1562 10.2593 39.3784 10.2593C39.6006 10.2593 39.8137 10.3476 39.9708 10.5047C40.1279 10.6619 40.2162 10.875 40.2162 11.0972V28.2812C40.2162 28.5035 40.1279 28.7166 39.9708 28.8737C39.8137 29.0308 39.6006 29.1191 39.3784 29.1191Z" fill="#F4CF87"/>
</svg>
