<svg width="14" height="10" viewBox="0 0 14 10" fill="none" xmlns="http://www.w3.org/2000/svg">
    <path d="M3.91955 4.53199C3.61792 4.44708 3.3163 4.404 3.02289 4.404C2.56981 4.404 2.19176 4.50524 1.89861 4.62921C2.18122 3.61758 2.86014 1.87203 4.21257 1.67546C4.33782 1.65725 4.44046 1.56869 4.47463 1.44949L4.77021 0.415756C4.79514 0.328334 4.78036 0.234758 4.72936 0.158892C4.67836 0.0830256 4.59641 0.0324064 4.50456 0.020097C4.40474 0.00678273 4.303 0 4.20216 0C2.57881 0 0.971125 1.65674 0.292725 4.02894C-0.105502 5.42065 -0.222273 7.513 0.758651 8.82998C1.30756 9.56691 2.10839 9.96043 3.13889 9.99975C3.14313 9.99988 3.14724 10 3.15148 10C4.42299 10 5.55048 9.16271 5.89347 7.96405C6.09837 7.24747 6.00575 6.49597 5.63244 5.84746C5.26312 5.20625 4.65486 4.73886 3.91955 4.53199Z" fill="#FFCC2A"/>
    <path d="M13.6324 5.84752C13.2631 5.20618 12.6548 4.73881 11.9195 4.53193C11.6179 4.44703 11.3162 4.40394 11.0229 4.40394C10.5699 4.40394 10.1917 4.50518 9.89852 4.62915C10.1811 3.61753 10.8601 1.87201 12.2126 1.67544C12.3379 1.65723 12.4404 1.56867 12.4747 1.44948L12.7703 0.415751C12.7952 0.32833 12.7804 0.234755 12.7294 0.15889C12.6786 0.0830246 12.5966 0.032406 12.5046 0.0200967C12.4049 0.00678264 12.3032 0 12.2022 0C10.5789 0 8.97115 1.65672 8.29261 4.02889C7.89451 5.42059 7.77774 7.51291 8.7588 8.83012C9.30759 9.56692 10.1086 9.96056 11.1389 9.99975C11.1432 9.99988 11.1473 10 11.1517 10C12.4231 10 13.5507 9.16272 13.8937 7.96408C14.0983 7.2475 14.0056 6.49589 13.6324 5.84752Z" fill="#FFCC2A"/>
</svg>
