<svg width="128" height="151" viewBox="0 0 128 151" fill="none" xmlns="http://www.w3.org/2000/svg">
    <path fill-rule="evenodd" clip-rule="evenodd" d="M59.248 32.671L2.672 89.2483C1.776 90.143 1.776 91.5963 2.672 92.491L59.248 149.068C60.144 149.964 61.596 149.964 62.492 149.068L119.068 92.491C119.964 91.5963 119.964 90.143 119.068 89.2483L62.492 32.671C61.596 31.7763 60.144 31.7763 59.248 32.671Z" stroke="#FFCC2A" stroke-width="2.36088"/>
    <path d="M68.8213 0.388C68.304 -0.129333 67.4653 -0.129333 66.948 0.388C66.4307 0.905333 66.4307 1.744 66.948 2.26133C67.4653 2.77867 68.304 2.77867 68.8213 2.26133C69.3387 1.744 69.3387 0.905333 68.8213 0.388Z" fill="#2D415E"/>
    <path d="M83.4947 15.0621C82.9773 14.5434 82.1387 14.5434 81.6213 15.0621C81.104 15.5794 81.104 16.4168 81.6213 16.9341C82.1387 17.4514 82.9773 17.4514 83.4947 16.9341C84.012 16.4168 84.012 15.5794 83.4947 15.0621Z" fill="#2D415E"/>
    <path d="M98.1679 29.7332C97.6506 29.2159 96.8119 29.2159 96.2946 29.7332C95.7773 30.2505 95.7773 31.0892 96.2946 31.6065C96.8119 32.1239 97.6506 32.1239 98.1679 31.6065C98.6839 31.0892 98.6839 30.2505 98.1679 29.7332Z" fill="#2D415E"/>
    <path d="M112.84 44.4066C112.323 43.8892 111.484 43.8892 110.968 44.4066C110.451 44.9239 110.451 45.7626 110.968 46.2799C111.484 46.7972 112.323 46.7972 112.84 46.2799C113.357 45.7626 113.357 44.9239 112.84 44.4066Z" fill="#2D415E"/>
    <path d="M127.513 59.0799C126.996 58.5626 126.157 58.5626 125.64 59.0799C125.123 59.5972 125.123 60.4359 125.64 60.9532C126.157 61.4706 126.996 61.4706 127.513 60.9532C128.031 60.4359 128.031 59.5972 127.513 59.0799Z" fill="#2D415E"/>
    <path d="M55.7093 13.5001C55.192 12.9827 54.3533 12.9827 53.836 13.5001C53.3187 14.0174 53.3187 14.8561 53.836 15.3734C54.3533 15.8907 55.192 15.8907 55.7093 15.3734C56.2267 14.8561 56.2267 14.0174 55.7093 13.5001Z" fill="#2D415E"/>
    <path d="M70.3827 28.1734C69.8653 27.6561 69.0267 27.6561 68.5093 28.1734C67.992 28.6921 67.992 29.5307 68.5093 30.0467C69.0267 30.5641 69.8653 30.5641 70.3827 30.0467C70.9 29.5307 70.9 28.6921 70.3827 28.1734Z" fill="#2D415E"/>
    <path d="M85.0547 42.8453C84.5387 42.3279 83.7 42.3279 83.1827 42.8453C82.6653 43.3626 82.6653 44.2013 83.1827 44.7186C83.7 45.2359 84.5387 45.2359 85.0547 44.7186C85.572 44.2013 85.572 43.3626 85.0547 42.8453Z" fill="#2D415E"/>
    <path d="M99.728 57.5186C99.2107 57.0013 98.372 57.0013 97.8547 57.5186C97.3373 58.0359 97.3373 58.8746 97.8547 59.3919C98.372 59.9093 99.2107 59.9093 99.728 59.3919C100.245 58.8746 100.245 58.0359 99.728 57.5186Z" fill="#2D415E"/>
    <path d="M114.401 72.192C113.884 71.6746 113.045 71.6746 112.528 72.192C112.011 72.7093 112.011 73.548 112.528 74.0653C113.045 74.5826 113.884 74.5826 114.401 74.0653C114.919 73.548 114.919 72.7093 114.401 72.192Z" fill="#2D415E"/>
    <path d="M42.5973 26.6121C42.08 26.0948 41.2413 26.0948 40.724 26.6121C40.2067 27.1295 40.2067 27.9681 40.724 28.4855C41.2413 29.0028 42.08 29.0028 42.5973 28.4855C43.1147 27.9681 43.1147 27.1295 42.5973 26.6121Z" fill="#2D415E"/>
    <path d="M57.2707 41.2852C56.7533 40.7679 55.9147 40.7679 55.3973 41.2852C54.88 41.8026 54.88 42.6425 55.3973 43.1586C55.9147 43.6759 56.7533 43.6759 57.2707 43.1586C57.788 42.6425 57.788 41.8026 57.2707 41.2852Z" fill="#2D415E"/>
    <path d="M71.9427 55.9573C71.4253 55.44 70.588 55.44 70.0707 55.9573C69.5533 56.4747 69.5533 57.312 70.0707 57.8307C70.588 58.348 71.4253 58.348 71.9427 57.8307C72.46 57.312 72.46 56.4747 71.9427 55.9573Z" fill="#2D415E"/>
    <path d="M86.616 70.6307C86.0987 70.1133 85.26 70.1133 84.7427 70.6307C84.2253 71.148 84.2253 71.9867 84.7427 72.504C85.26 73.0213 86.0987 73.0213 86.616 72.504C87.1333 71.9867 87.1333 71.148 86.616 70.6307Z" fill="#2D415E"/>
    <path d="M101.289 85.304C100.772 84.7867 99.9333 84.7867 99.416 85.304C98.8986 85.8213 98.8986 86.66 99.416 87.1773C99.9333 87.6947 100.772 87.6947 101.289 87.1773C101.807 86.66 101.807 85.8213 101.289 85.304Z" fill="#2D415E"/>
    <path d="M29.4853 39.7239C28.968 39.2066 28.1293 39.2066 27.612 39.7239C27.0947 40.2413 27.0947 41.0799 27.612 41.5973C28.1293 42.1146 28.968 42.1146 29.4853 41.5973C30.0027 41.0799 30.0027 40.2413 29.4853 39.7239Z" fill="#2D415E"/>
    <path d="M44.1587 54.3973C43.6413 53.8799 42.8027 53.8799 42.2853 54.3973C41.768 54.9146 41.768 55.7533 42.2853 56.2706C42.8027 56.7879 43.6413 56.7879 44.1587 56.2706C44.676 55.7533 44.676 54.9146 44.1587 54.3973Z" fill="#2D415E"/>
    <path d="M58.8307 69.0694C58.3133 68.5521 57.4747 68.5521 56.9587 69.0694C56.4413 69.5867 56.4413 70.4241 56.9587 70.9414C57.4747 71.4587 58.3133 71.4587 58.8307 70.9414C59.348 70.4241 59.348 69.5867 58.8307 69.0694Z" fill="#2D415E"/>
    <path d="M73.504 83.7427C72.9867 83.2254 72.148 83.2254 71.6307 83.7427C71.1133 84.2601 71.1133 85.0987 71.6307 85.6161C72.148 86.1334 72.9867 86.1334 73.504 85.6161C74.0213 85.0987 74.0213 84.2601 73.504 83.7427Z" fill="#2D415E"/>
    <path d="M88.1773 98.4161C87.66 97.8987 86.8213 97.8987 86.304 98.4161C85.7867 98.9334 85.7867 99.7721 86.304 100.289C86.8213 100.807 87.66 100.807 88.1773 100.289C88.6947 99.7721 88.6947 98.9334 88.1773 98.4161Z" fill="#2D415E"/>
    <path d="M16.3733 52.836C15.856 52.3187 15.0173 52.3187 14.5 52.836C13.9827 53.3533 13.9827 54.192 14.5 54.7093C15.0173 55.2267 15.856 55.2267 16.3733 54.7093C16.8907 54.192 16.8907 53.3533 16.3733 52.836Z" fill="#2D415E"/>
    <path d="M31.0467 67.5093C30.5293 66.992 29.6907 66.992 29.1733 67.5093C28.656 68.0267 28.656 68.8653 29.1733 69.3827C29.6907 69.9 30.5293 69.9 31.0467 69.3827C31.564 68.8653 31.564 68.0267 31.0467 67.5093Z" fill="#2D415E"/>
    <path d="M45.7187 82.1815C45.2013 81.6641 44.364 81.6641 43.8467 82.1815C43.3293 82.6988 43.3293 83.5361 43.8467 84.0535C44.364 84.5708 45.2013 84.5708 45.7187 84.0535C46.236 83.5361 46.236 82.6988 45.7187 82.1815Z" fill="#2D415E"/>
    <path d="M60.392 96.8546C59.8747 96.3372 59.036 96.3372 58.5187 96.8546C58.0013 97.3719 58.0013 98.2106 58.5187 98.7279C59.036 99.2452 59.8747 99.2452 60.392 98.7279C60.9093 98.2106 60.9093 97.3719 60.392 96.8546Z" fill="#2D415E"/>
    <path d="M75.0653 111.528C74.548 111.011 73.7093 111.011 73.192 111.528C72.6747 112.045 72.6747 112.884 73.192 113.401C73.7093 113.919 74.548 113.919 75.0653 113.401C75.5827 112.884 75.5827 112.045 75.0653 111.528Z" fill="#2D415E"/>
    <path d="M3.26133 65.9481C2.744 65.4307 1.90533 65.4307 1.388 65.9481C0.870667 66.4654 0.870667 67.3041 1.388 67.8214C1.90533 68.3387 2.744 68.3387 3.26133 67.8214C3.77867 67.3041 3.77867 66.4654 3.26133 65.9481Z" fill="#2D415E"/>
    <path d="M17.9347 80.6214C17.4173 80.1041 16.5787 80.1041 16.0613 80.6214C15.544 81.1387 15.544 81.9774 16.0613 82.4947C16.5787 83.0121 17.4173 83.0121 17.9347 82.4947C18.4507 81.9774 18.4507 81.1387 17.9347 80.6214Z" fill="#2D415E"/>
    <path d="M32.6067 95.2933C32.0893 94.7759 31.2507 94.7759 30.7333 95.2933C30.216 95.8093 30.216 96.6479 30.7333 97.1653C31.2507 97.6826 32.0893 97.6826 32.6067 97.1653C33.124 96.6479 33.124 95.8093 32.6067 95.2933Z" fill="#2D415E"/>
    <path d="M47.28 109.967C46.7627 109.449 45.924 109.449 45.4067 109.967C44.8893 110.484 44.8893 111.323 45.4067 111.84C45.924 112.356 46.7627 112.356 47.28 111.84C47.7973 111.323 47.7973 110.484 47.28 109.967Z" fill="#2D415E"/>
    <path d="M61.9533 124.64C61.436 124.123 60.5973 124.123 60.08 124.64C59.5627 125.157 59.5627 125.996 60.08 126.513C60.5973 127.031 61.436 127.031 61.9533 126.513C62.4707 125.996 62.4707 125.157 61.9533 124.64Z" fill="#2D415E"/>
</svg>
