<svg width="99" height="101" viewBox="0 0 99 101" fill="none" xmlns="http://www.w3.org/2000/svg">
    <path fill-rule="evenodd" clip-rule="evenodd" d="M3.96133 99.5798H72.384C73.468 99.5798 74.3453 98.7012 74.3453 97.6185V29.1958C74.3453 28.1118 73.468 27.2344 72.384 27.2344H3.96133C2.87733 27.2344 2 28.1118 2 29.1958V97.6185C2 98.7012 2.87733 99.5798 3.96133 99.5798Z" stroke="#FFCC2A" stroke-width="2.66667"/>
    <path d="M96.5732 1.13173C96.5732 1.75733 97.0812 2.26507 97.7066 2.26507C98.3319 2.26507 98.8386 1.75733 98.8386 1.13173C98.8386 0.5068 98.3319 0 97.7066 0C97.0812 0 96.5732 0.5068 96.5732 1.13173Z" fill="#2D415E"/>
    <path d="M78.8279 1.13173C78.8279 1.75733 79.3359 2.26507 79.9612 2.26507C80.5865 2.26507 81.0932 1.75733 81.0932 1.13173C81.0932 0.5068 80.5865 0 79.9612 0C79.3359 0 78.8279 0.5068 78.8279 1.13173Z" fill="#2D415E"/>
    <path d="M61.0828 1.13173C61.0828 1.75733 61.5894 2.26507 62.2161 2.26507C62.8414 2.26507 63.3481 1.75733 63.3481 1.13173C63.3481 0.5068 62.8414 0 62.2161 0C61.5894 0 61.0828 0.5068 61.0828 1.13173Z" fill="#2D415E"/>
    <path d="M43.3374 1.13173C43.3374 1.75733 43.8441 2.26507 44.4694 2.26507C45.0961 2.26507 45.6027 1.75733 45.6027 1.13173C45.6027 0.5068 45.0961 0 44.4694 0C43.8441 0 43.3374 0.5068 43.3374 1.13173Z" fill="#2D415E"/>
    <path d="M25.592 1.13173C25.592 1.75733 26.0987 2.26507 26.724 2.26507C27.3494 2.26507 27.8574 1.75733 27.8574 1.13173C27.8574 0.5068 27.3494 0 26.724 0C26.0987 0 25.592 0.5068 25.592 1.13173Z" fill="#2D415E"/>
    <path d="M96.5732 16.9892C96.5732 17.6158 97.0812 18.1225 97.7066 18.1225C98.3319 18.1225 98.8386 17.6158 98.8386 16.9892C98.8386 16.3638 98.3319 15.8572 97.7066 15.8572C97.0812 15.8572 96.5732 16.3638 96.5732 16.9892Z" fill="#2D415E"/>
    <path d="M78.8279 16.9892C78.8279 17.6158 79.3359 18.1225 79.9612 18.1225C80.5865 18.1225 81.0932 17.6158 81.0932 16.9892C81.0932 16.3638 80.5865 15.8572 79.9612 15.8572C79.3359 15.8572 78.8279 16.3638 78.8279 16.9892Z" fill="#2D415E"/>
    <path d="M61.0828 16.9892C61.0828 17.6158 61.5894 18.1225 62.2161 18.1225C62.8414 18.1225 63.3481 17.6158 63.3481 16.9892C63.3481 16.3638 62.8414 15.8572 62.2161 15.8572C61.5894 15.8572 61.0828 16.3638 61.0828 16.9892Z" fill="#2D415E"/>
    <path d="M43.3374 16.9892C43.3374 17.6158 43.8441 18.1225 44.4694 18.1225C45.0961 18.1225 45.6027 17.6158 45.6027 16.9892C45.6027 16.3638 45.0961 15.8572 44.4694 15.8572C43.8441 15.8572 43.3374 16.3638 43.3374 16.9892Z" fill="#2D415E"/>
    <path d="M25.592 16.9892C25.592 17.6158 26.0987 18.1225 26.724 18.1225C27.3494 18.1225 27.8574 17.6158 27.8574 16.9892C27.8574 16.3638 27.3494 15.8572 26.724 15.8572C26.0987 15.8572 25.592 16.3638 25.592 16.9892Z" fill="#2D415E"/>
    <path d="M96.5732 32.8479C96.5732 33.4733 97.0812 33.9799 97.7066 33.9799C98.3319 33.9799 98.8386 33.4733 98.8386 32.8479C98.8386 32.2226 98.3319 31.7146 97.7066 31.7146C97.0812 31.7146 96.5732 32.2226 96.5732 32.8479Z" fill="#2D415E"/>
    <path d="M78.8279 32.8479C78.8279 33.4733 79.3359 33.9799 79.9612 33.9799C80.5865 33.9799 81.0932 33.4733 81.0932 32.8479C81.0932 32.2226 80.5865 31.7146 79.9612 31.7146C79.3359 31.7146 78.8279 32.2226 78.8279 32.8479Z" fill="#2D415E"/>
    <path d="M61.0828 32.8479C61.0828 33.4733 61.5894 33.9799 62.2161 33.9799C62.8414 33.9799 63.3481 33.4733 63.3481 32.8479C63.3481 32.2226 62.8414 31.7146 62.2161 31.7146C61.5894 31.7146 61.0828 32.2226 61.0828 32.8479Z" fill="#2D415E"/>
    <path d="M43.3374 32.8479C43.3374 33.4733 43.8441 33.9799 44.4694 33.9799C45.0961 33.9799 45.6027 33.4733 45.6027 32.8479C45.6027 32.2226 45.0961 31.7146 44.4694 31.7146C43.8441 31.7146 43.3374 32.2226 43.3374 32.8479Z" fill="#2D415E"/>
    <path d="M25.592 32.8479C25.592 33.4733 26.0987 33.9799 26.724 33.9799C27.3494 33.9799 27.8574 33.4733 27.8574 32.8479C27.8574 32.2226 27.3494 31.7146 26.724 31.7146C26.0987 31.7146 25.592 32.2226 25.592 32.8479Z" fill="#2D415E"/>
    <path d="M96.5732 48.7052C96.5732 49.3306 97.0812 49.8372 97.7066 49.8372C98.3319 49.8372 98.8386 49.3306 98.8386 48.7052C98.8386 48.0799 98.3319 47.5732 97.7066 47.5732C97.0812 47.5732 96.5732 48.0799 96.5732 48.7052Z" fill="#2D415E"/>
    <path d="M78.8279 48.7052C78.8279 49.3306 79.3359 49.8372 79.9612 49.8372C80.5865 49.8372 81.0932 49.3306 81.0932 48.7052C81.0932 48.0799 80.5865 47.5732 79.9612 47.5732C79.3359 47.5732 78.8279 48.0799 78.8279 48.7052Z" fill="#2D415E"/>
    <path d="M61.0828 48.7052C61.0828 49.3306 61.5894 49.8372 62.2161 49.8372C62.8414 49.8372 63.3481 49.3306 63.3481 48.7052C63.3481 48.0799 62.8414 47.5732 62.2161 47.5732C61.5894 47.5732 61.0828 48.0799 61.0828 48.7052Z" fill="#2D415E"/>
    <path d="M43.3374 48.7052C43.3374 49.3306 43.8441 49.8372 44.4694 49.8372C45.0961 49.8372 45.6027 49.3306 45.6027 48.7052C45.6027 48.0799 45.0961 47.5732 44.4694 47.5732C43.8441 47.5732 43.3374 48.0799 43.3374 48.7052Z" fill="#2D415E"/>
    <path d="M25.592 48.7052C25.592 49.3306 26.0987 49.8372 26.724 49.8372C27.3494 49.8372 27.8574 49.3306 27.8574 48.7052C27.8574 48.0799 27.3494 47.5732 26.724 47.5732C26.0987 47.5732 25.592 48.0799 25.592 48.7052Z" fill="#2D415E"/>
    <path d="M96.5732 64.5624C96.5732 65.1878 97.0812 65.6958 97.7066 65.6958C98.3319 65.6958 98.8386 65.1878 98.8386 64.5624C98.8386 63.9371 98.3319 63.4304 97.7066 63.4304C97.0812 63.4304 96.5732 63.9371 96.5732 64.5624Z" fill="#2D415E"/>
    <path d="M78.8279 64.5624C78.8279 65.1878 79.3359 65.6958 79.9612 65.6958C80.5865 65.6958 81.0932 65.1878 81.0932 64.5624C81.0932 63.9371 80.5865 63.4304 79.9612 63.4304C79.3359 63.4304 78.8279 63.9371 78.8279 64.5624Z" fill="#2D415E"/>
    <path d="M61.0828 64.5624C61.0828 65.1878 61.5894 65.6958 62.2161 65.6958C62.8414 65.6958 63.3481 65.1878 63.3481 64.5624C63.3481 63.9371 62.8414 63.4304 62.2161 63.4304C61.5894 63.4304 61.0828 63.9371 61.0828 64.5624Z" fill="#2D415E"/>
    <path d="M43.3374 64.5624C43.3374 65.1878 43.8441 65.6958 44.4694 65.6958C45.0961 65.6958 45.6027 65.1878 45.6027 64.5624C45.6027 63.9371 45.0961 63.4304 44.4694 63.4304C43.8441 63.4304 43.3374 63.9371 43.3374 64.5624Z" fill="#2D415E"/>
    <path d="M25.592 64.5624C25.592 65.1878 26.0987 65.6958 26.724 65.6958C27.3494 65.6958 27.8574 65.1878 27.8574 64.5624C27.8574 63.9371 27.3494 63.4304 26.724 63.4304C26.0987 63.4304 25.592 63.9371 25.592 64.5624Z" fill="#2D415E"/>
    <path d="M96.5732 80.4212C96.5732 81.0465 97.0812 81.5532 97.7066 81.5532C98.3319 81.5532 98.8386 81.0465 98.8386 80.4212C98.8386 79.7945 98.3319 79.2878 97.7066 79.2878C97.0812 79.2878 96.5732 79.7945 96.5732 80.4212Z" fill="#2D415E"/>
    <path d="M78.8279 80.4212C78.8279 81.0465 79.3359 81.5532 79.9612 81.5532C80.5865 81.5532 81.0932 81.0465 81.0932 80.4212C81.0932 79.7945 80.5865 79.2878 79.9612 79.2878C79.3359 79.2878 78.8279 79.7945 78.8279 80.4212Z" fill="#2D415E"/>
    <path d="M61.0828 80.4212C61.0828 81.0465 61.5894 81.5532 62.2161 81.5532C62.8414 81.5532 63.3481 81.0465 63.3481 80.4212C63.3481 79.7945 62.8414 79.2878 62.2161 79.2878C61.5894 79.2878 61.0828 79.7945 61.0828 80.4212Z" fill="#2D415E"/>
    <path d="M43.3374 80.4212C43.3374 81.0465 43.8441 81.5532 44.4694 81.5532C45.0961 81.5532 45.6027 81.0465 45.6027 80.4212C45.6027 79.7945 45.0961 79.2878 44.4694 79.2878C43.8441 79.2878 43.3374 79.7945 43.3374 80.4212Z" fill="#2D415E"/>
    <path d="M25.592 80.4212C25.592 81.0465 26.0987 81.5532 26.724 81.5532C27.3494 81.5532 27.8574 81.0465 27.8574 80.4212C27.8574 79.7945 27.3494 79.2878 26.724 79.2878C26.0987 79.2878 25.592 79.7945 25.592 80.4212Z" fill="#2D415E"/>
</svg>
