<svg width="58" height="58" viewBox="0 0 58 58" fill="none" xmlns="http://www.w3.org/2000/svg">
    <circle cx="3.22222" cy="3.22222" r="3.22222" fill="#FFCD00"/>
    <circle cx="3.22222" cy="16.1111" r="3.22222" fill="#FFCD00"/>
    <circle cx="3.22222" cy="29.0001" r="3.22222" fill="#FFCD00"/>
    <circle cx="3.22222" cy="41.889" r="3.22222" fill="#FFCD00"/>
    <circle cx="3.22222" cy="54.7779" r="3.22222" fill="#FFCD00"/>
    <circle cx="16.1111" cy="3.22222" r="3.22222" fill="#FFCD00"/>
    <circle cx="16.1111" cy="16.1111" r="3.22222" fill="#FFCD00"/>
    <circle cx="16.1111" cy="29.0001" r="3.22222" fill="#FFCD00"/>
    <circle cx="16.1111" cy="41.889" r="3.22222" fill="#FFCD00"/>
    <circle cx="16.1111" cy="54.7779" r="3.22222" fill="#FFCD00"/>
    <circle cx="29.0001" cy="3.22222" r="3.22222" fill="#FFCD00"/>
    <circle cx="29.0001" cy="16.1111" r="3.22222" fill="#FFCD00"/>
    <circle cx="29.0001" cy="29.0001" r="3.22222" fill="#FFCD00"/>
    <circle cx="29.0001" cy="41.889" r="3.22222" fill="#FFCD00"/>
    <circle cx="29.0001" cy="54.7779" r="3.22222" fill="#FFCD00"/>
    <circle cx="41.889" cy="3.22222" r="3.22222" fill="#FFCD00"/>
    <circle cx="41.889" cy="16.1111" r="3.22222" fill="#FFCD00"/>
    <circle cx="41.889" cy="29.0001" r="3.22222" fill="#FFCD00"/>
    <circle cx="41.889" cy="41.889" r="3.22222" fill="#FFCD00"/>
    <circle cx="41.889" cy="54.7779" r="3.22222" fill="#FFCD00"/>
    <circle cx="54.7779" cy="3.22222" r="3.22222" fill="#FFCD00"/>
    <circle cx="54.7779" cy="16.1111" r="3.22222" fill="#FFCD00"/>
    <circle cx="54.7779" cy="29.0001" r="3.22222" fill="#FFCD00"/>
    <circle cx="54.7779" cy="41.889" r="3.22222" fill="#FFCD00"/>
    <circle cx="54.7779" cy="54.7779" r="3.22222" fill="#FFCD00"/>
</svg>
