<svg width="62" height="62" viewBox="0 0 62 62" fill="none" xmlns="http://www.w3.org/2000/svg">
    <g clip-path="url(#clip0_636_529)">
        <path d="M58.5455 28.0166L56.9399 21.5944C57.3789 21.5012 57.7083 21.1117 57.7083 20.6452V19.6097C57.7083 17.3615 55.8791 15.5325 53.631 15.5325H46.3179V13.3966C46.3179 12.2903 45.418 11.3903 44.3117 11.3903H7.03391C5.9276 11.3903 5.02763 12.2903 5.02763 13.3966V31C5.02763 31.5361 5.46224 31.9708 5.99844 31.9708C6.53452 31.9708 6.96925 31.5362 6.96925 31V13.3966C6.96925 13.3609 6.99819 13.3319 7.03391 13.3319H44.3115C44.3473 13.3319 44.3762 13.3609 44.3762 13.3966V31.0002C44.3762 31.5363 44.8108 31.9711 45.347 31.9711C45.8831 31.9711 46.3178 31.5364 46.3178 31.0002V29.8997H57.7695C57.7705 29.8997 57.7712 29.9 57.7721 29.9C57.773 29.9 57.7739 29.8999 57.7747 29.8999C59.1839 29.9008 60.3804 30.8257 60.7914 32.1003H57.7728C57.2367 32.1003 56.802 32.5349 56.802 33.0711V35.142C56.802 36.8193 58.1665 38.1838 59.8437 38.1838H60.944V42.4551H58.4056C57.5718 40.0474 55.283 38.3131 52.5953 38.3131C49.9076 38.3131 47.6187 40.0474 46.785 42.4551H46.3176V35.1419C46.3176 34.6058 45.883 34.1711 45.3468 34.1711C44.8107 34.1711 44.376 34.6057 44.376 35.1419V42.4549H24.2347C23.4008 40.0472 21.112 38.3129 18.4244 38.3129C15.7367 38.3129 13.4478 40.0472 12.614 42.4549H7.03391C6.99819 42.4549 6.96925 42.4259 6.96925 42.3902V40.2545H11.1759C11.712 40.2545 12.1467 39.8199 12.1467 39.2837C12.1467 38.7475 11.7121 38.3129 11.1759 38.3129H1.85655C1.32047 38.3129 0.885742 38.7475 0.885742 39.2837C0.885742 39.8199 1.32035 40.2545 1.85655 40.2545H5.02775V42.3902C5.02775 43.4965 5.92772 44.3965 7.03404 44.3965H12.2779C12.2776 44.418 12.2762 44.4395 12.2762 44.4611C12.2762 47.8513 15.0343 50.6093 18.4244 50.6093C21.8144 50.6093 24.5725 47.8513 24.5725 44.4611C24.5725 44.4394 24.5711 44.418 24.5708 44.3965H46.4488C46.4486 44.418 46.4471 44.4395 46.4471 44.4611C46.4471 47.8513 49.2053 50.6093 52.5953 50.6093C55.9853 50.6093 58.7435 47.8513 58.7435 44.4611C58.7435 44.4394 58.742 44.418 58.7418 44.3965H61.9148C62.4509 44.3965 62.8856 43.9619 62.8856 43.4257V33.0708C62.8857 30.5143 60.9995 28.3902 58.5455 28.0166ZM46.3179 17.4739H53.631C54.8087 17.4739 55.7668 18.432 55.7668 19.6097V19.6743H46.3179V17.4739ZM46.3179 27.9582V21.6158H54.944L56.5297 27.9582H46.3179ZM18.4244 48.6681C16.1048 48.6681 14.2177 46.7811 14.2177 44.4614C14.2177 42.1417 16.1048 40.2547 18.4244 40.2547C20.7439 40.2547 22.631 42.1417 22.631 44.4614C22.631 46.7811 20.7439 48.6681 18.4244 48.6681ZM52.5956 48.6681C50.276 48.6681 48.3889 46.7811 48.3889 44.4614C48.3889 42.1417 50.276 40.2547 52.5956 40.2547C54.9151 40.2547 56.8022 42.1417 56.8022 44.4614C56.8022 46.7811 54.9151 48.6681 52.5956 48.6681ZM60.9442 36.2421H59.844C59.2373 36.2421 58.7437 35.7486 58.7437 35.1419V34.0416H60.9441V36.2421H60.9442Z" fill="#282828"/>
        <path d="M18.4245 42.4551C17.3182 42.4551 16.4182 43.3551 16.4182 44.4614C16.4182 45.5677 17.3182 46.4677 18.4245 46.4677C19.5308 46.4677 20.4308 45.5677 20.4308 44.4614C20.4308 43.3551 19.5308 42.4551 18.4245 42.4551Z" fill="#282828"/>
        <path d="M52.5956 42.4551C51.4893 42.4551 50.5894 43.3551 50.5894 44.4614C50.5894 45.5677 51.4893 46.4677 52.5956 46.4677C53.7019 46.4677 54.6019 45.5677 54.6019 44.4614C54.6019 43.3551 53.7019 42.4551 52.5956 42.4551Z" fill="#282828"/>
        <path d="M41.205 38.3132H26.7081C26.172 38.3132 25.7373 38.7478 25.7373 39.284C25.7373 39.8202 26.1719 40.2548 26.7081 40.2548H41.205C41.741 40.2548 42.1758 39.8202 42.1758 39.284C42.1758 38.7478 41.7412 38.3132 41.205 38.3132Z" fill="#F4CF87"/>
        <path d="M16.3533 34.1712H3.92735C3.39127 34.1712 2.95654 34.6058 2.95654 35.142C2.95654 35.6782 3.39115 36.1128 3.92735 36.1128H16.3533C16.8893 36.1128 17.3241 35.6782 17.3241 35.142C17.3241 34.6058 16.8893 34.1712 16.3533 34.1712Z" fill="#F4CF87"/>
        <path d="M34.6431 20.994C34.2641 20.615 33.6493 20.615 33.2702 20.9942L24.6372 29.627L20.1462 25.136C19.7671 24.7569 19.1524 24.7569 18.7734 25.136C18.3942 25.5152 18.3942 26.1297 18.7734 26.5089L23.9509 31.6864C24.1404 31.876 24.3889 31.9707 24.6372 31.9707C24.8856 31.9707 25.1342 31.876 25.3236 31.6864L34.643 22.367C35.0221 21.9877 35.0221 21.3732 34.6431 20.994Z" fill="#F4CF87"/>
    </g>
    <defs>
        <clipPath id="clip0_636_529">
            <rect width="62" height="62" fill="white"/>
        </clipPath>
    </defs>
</svg>
