<svg width="62" height="62" viewBox="0 0 62 62" fill="none" xmlns="http://www.w3.org/2000/svg">
    <g clip-path="url(#clip0_636_574)">
        <path d="M61.3723 13.4095L37.2254 0.150242C36.8626 -0.0489006 36.4227 -0.0489006 36.0599 0.150242L26.9585 5.14772C26.7664 5.19834 26.5871 5.29483 26.4386 5.43343L11.9135 13.4095C11.5261 13.6219 11.2853 14.0287 11.2853 14.471V30.5074C8.83508 31.2737 6.58964 32.6251 4.72262 34.4926C-0.143841 39.3586 -1.38458 46.7803 1.6352 52.9604C1.92847 53.5611 2.65361 53.8104 3.25435 53.5166C3.85557 53.2229 4.10438 52.4977 3.8111 51.897C1.24543 46.646 2.29979 40.3401 6.43496 36.205C9.02097 33.6189 12.4589 32.1947 16.1158 32.1947C19.7728 32.1947 23.2107 33.6189 25.7967 36.205C28.3823 38.7905 29.8065 42.2284 29.8065 45.8854C29.8065 49.5423 28.3823 52.9802 25.7962 55.5662C21.6611 59.7014 15.3552 60.7558 10.1042 58.1901C9.50346 57.8964 8.77831 58.1456 8.48504 58.7464C8.19129 59.3476 8.4401 60.0727 9.04131 60.366C11.2924 61.4663 13.7077 62.0008 16.1054 62.0008C20.2884 62.0003 24.4155 60.3722 27.5091 57.2786C28.9277 55.86 30.0487 54.2233 30.842 52.4443L36.0599 55.3094C36.2415 55.4092 36.4421 55.4589 36.6427 55.4589C36.8432 55.4589 37.0443 55.4092 37.2254 55.3094L61.3723 42.0506C61.7597 41.8377 62.0005 41.4309 62.0005 40.9891V32.5736C62.0005 31.9047 61.4584 31.3626 60.7895 31.3626C60.1207 31.3626 59.5786 31.9047 59.5786 32.5736V40.2725L37.8574 52.1997V28.4446L45.026 24.5081V30.7482C45.026 31.1767 45.2521 31.5731 45.6206 31.7907C45.8108 31.9028 46.0236 31.9591 46.237 31.9591C46.4375 31.9591 46.6386 31.9094 46.8207 31.8092L51.9951 28.9611C52.382 28.7482 52.6218 28.3419 52.6218 27.9006V20.337L59.5786 16.5173V22.8865C59.5786 23.5554 60.1207 24.0975 60.7895 24.0975C61.4584 24.0975 62.0005 23.5554 62.0005 22.8865V14.471C62.0005 14.0292 61.7597 13.6219 61.3723 13.4095ZM36.6427 2.59293L58.2735 14.471L51.4502 18.2178L29.8193 6.33974L36.6427 2.59293ZM36.6427 26.3486L15.0118 14.471L22.0854 10.5865L43.7167 22.4641L36.6427 26.3486ZM46.2322 21.0829L24.6014 9.20531L27.3033 7.72144L48.9346 19.599L46.2322 21.0829ZM27.5091 34.4926C24.4656 31.4492 20.4194 29.7733 16.1158 29.7733C15.3018 29.7733 14.4976 29.8333 13.7072 29.9511V16.5173L35.436 28.4488V52.204L31.6646 50.1331C32.0359 48.7661 32.2279 47.3404 32.2279 45.8854C32.2279 41.5818 30.552 37.5356 27.5091 34.4926ZM50.2004 27.1849L47.4479 28.7V23.1784L50.2004 21.6671V27.1849Z" fill="#282828"/>
        <path d="M60.7891 26.5125C60.4707 26.5125 60.1581 26.6421 59.9329 26.8672C59.7077 27.0924 59.5781 27.4046 59.5781 27.7234C59.5781 28.0417 59.7077 28.3539 59.9329 28.5791C60.1581 28.8047 60.4707 28.9339 60.7891 28.9339C61.1074 28.9339 61.4201 28.8047 61.6452 28.5791C61.8704 28.3539 62 28.0417 62 27.7234C62 27.4046 61.8704 27.0924 61.6452 26.8672C61.4201 26.6421 61.1074 26.5125 60.7891 26.5125Z" fill="#282828"/>
        <path d="M12.0436 47.0955C12.3534 47.0955 12.6637 46.9773 12.8998 46.7413C13.3728 46.2682 13.3728 45.5015 12.8998 45.0284L12.0611 44.1893H19.2179C20.9539 44.1893 22.3664 45.6017 22.3664 47.3377C22.3664 49.0737 20.9539 50.4862 19.2179 50.4862H14.9773C14.3084 50.4862 13.7663 51.0283 13.7663 51.6971C13.7663 52.3655 14.3084 52.9076 14.9773 52.9076H19.2179C22.2893 52.9076 24.7882 50.4091 24.7882 47.3377C24.7882 44.2664 22.2893 41.7679 19.2179 41.7679H12.0611L12.8998 40.9287C13.3728 40.4557 13.3728 39.6889 12.8998 39.2159C12.4272 38.7434 11.6604 38.7434 11.1874 39.2159L8.28117 42.1222C7.80862 42.5952 7.80862 43.362 8.28117 43.835L11.1874 46.7408C11.4239 46.9773 11.7338 47.0955 12.0436 47.0955Z" fill="#F4CF87"/>
        <path d="M5.57937 57.6345C5.23501 57.6345 4.89301 57.4878 4.65414 57.2036L4.65177 57.2007C4.22132 56.6889 4.28754 55.9255 4.79935 55.495C5.31116 55.0641 6.0751 55.1303 6.50555 55.6421C6.93552 56.1544 6.87072 56.9193 6.35891 57.3497C6.13139 57.5408 5.85467 57.6345 5.57937 57.6345Z" fill="#282828"/>
    </g>
    <defs>
        <clipPath id="clip0_636_574">
            <rect width="62" height="62" fill="white"/>
        </clipPath>
    </defs>
</svg>
