<svg width="22" height="21" viewBox="0 0 22 21" fill="none" xmlns="http://www.w3.org/2000/svg">
    <path d="M12.4706 19.9521C12.3927 19.9869 12.3144 20.0189 12.2358 20.0482C12.3144 20.0189 12.3927 19.9869 12.4706 19.9521Z" fill="black"/>
    <path d="M12.4706 19.9734C12.3924 19.9922 12.3141 20.0094 12.2358 20.027C12.3141 20.0094 12.3924 19.9922 12.4706 19.9734Z" fill="black"/>
    <path d="M12.4706 19.9631C12.3928 19.9912 12.3144 20.0162 12.2358 20.0373C12.3144 20.0162 12.3928 19.9912 12.4706 19.9631Z" fill="black"/>
    <path d="M12.4706 19.9777C12.3926 19.9938 12.3141 20.0086 12.2358 20.0227C12.3141 20.0086 12.3926 19.9938 12.4706 19.9777Z" fill="black"/>
    <path d="M13.4032 19.9719C13.3687 19.991 13.334 20.0102 13.2993 20.0285C13.334 20.0102 13.3687 19.991 13.4032 19.9719Z" fill="black"/>
    <path d="M13.4013 18.9699C13.3679 18.9906 13.3346 19.0102 13.3013 19.0305C13.3346 19.0102 13.3679 18.9906 13.4013 18.9699Z" fill="black"/>
    <path d="M13.4013 19.9693C13.368 19.99 13.3347 20.0111 13.3013 20.0311C13.3347 20.0111 13.368 19.9904 13.4013 19.9693Z" fill="black"/>
    <path d="M13.4013 19.9719C13.3681 19.9914 13.3347 20.0098 13.3013 20.0285C13.3347 20.0098 13.3681 19.9914 13.4013 19.9719Z" fill="black"/>
    <path d="M11.4728 19.985C11.3946 19.9963 11.3165 20.0064 11.238 20.0154C11.3165 20.0064 11.3946 19.9963 11.4728 19.985Z" fill="black"/>
    <path d="M21.3346 10C21.3346 4.478 16.8659 0 11.3554 0C5.84491 0 1.37622 4.478 1.37622 10C1.37622 15.522 5.84491 20 11.3554 20C11.4141 20 11.4724 19.9988 11.5308 19.9977V12.2131H9.38687V9.70932H11.5308V7.86682C11.5308 5.72998 12.8326 4.56696 14.7348 4.56696C15.6456 4.56696 16.4286 4.63501 16.6569 4.66537V6.89865H15.3452C14.3104 6.89865 14.11 7.39151 14.11 8.11462V9.70932H16.5844L16.2619 12.2131H14.11V19.6136C18.2811 18.4154 21.3346 14.5645 21.3346 10Z" fill="#2D415E"/>
    <path d="M11.4728 19.9803C11.3949 19.9975 11.3166 20.0111 11.238 20.0201C11.3166 20.0111 11.3949 19.9975 11.4728 19.9803Z" fill="black"/>
    <path d="M11.4728 19.9949C11.3947 19.9996 11.3164 20.0031 11.238 20.0055C11.3164 20.0031 11.3947 19.9996 11.4728 19.9949Z" fill="black"/>
</svg>
