<svg width="359" height="510" viewBox="0 0 359 510" fill="none" xmlns="http://www.w3.org/2000/svg">
    <path fill-rule="evenodd" clip-rule="evenodd" d="M1 20C1 8.9543 9.9543 0 21 0H348C348 0 297 152 338 272C379 392 338 510 338 510H21C9.9543 510 1 501.046 1 490V20Z" fill="#2D415E"/>
    <mask id="mask0" style="mask-type:alpha" maskUnits="userSpaceOnUse" x="1" y="0" width="356" height="510">
        <path fill-rule="evenodd" clip-rule="evenodd" d="M1 20C1 8.9543 9.9543 0 21 0H348C348 0 297 152 338 272C379 392 338 510 338 510H21C9.9543 510 1 501.046 1 490V20Z" fill="white"/>
    </mask>
    <g mask="url(#mask0)">
        <ellipse opacity="0.0312267" cx="82.441" cy="446.5" rx="172.689" ry="172.5" fill="url(#paint0_linear)"/>
        <circle opacity="0.0312267" cx="309.5" cy="357.5" r="239.5" fill="url(#paint1_linear)"/>
    </g>
    <defs>
        <linearGradient id="paint0_linear" x1="-90.2482" y1="274" x2="-90.2482" y2="619" gradientUnits="userSpaceOnUse">
            <stop stop-color="white"/>
            <stop offset="1" stop-color="white" stop-opacity="0.01"/>
        </linearGradient>
        <linearGradient id="paint1_linear" x1="70" y1="118" x2="70" y2="597" gradientUnits="userSpaceOnUse">
            <stop stop-color="white"/>
            <stop offset="1" stop-color="white" stop-opacity="0.01"/>
        </linearGradient>
    </defs>
</svg>
