<svg width="22" height="20" viewBox="0 0 22 20" fill="none" xmlns="http://www.w3.org/2000/svg">
    <path d="M12.7898 10C12.7898 11.1046 11.8962 12 10.7939 12C9.69164 12 8.7981 11.1046 8.7981 10C8.7981 8.89541 9.69164 8 10.7939 8C11.8962 8 12.7898 8.89541 12.7898 10Z" fill="white"/>
    <path fill-rule="evenodd" clip-rule="evenodd" d="M15.5386 6.40301C15.4411 6.13819 15.2855 5.8985 15.0834 5.70175C14.887 5.49917 14.648 5.34326 14.3836 5.24553C14.1691 5.16207 13.8469 5.06272 13.2535 5.03565C12.6116 5.00632 12.4192 5 10.7941 5C9.16891 5 8.97645 5.00616 8.3347 5.03549C7.74132 5.06272 7.41899 5.16207 7.2047 5.24553C6.94027 5.34326 6.70107 5.49917 6.50489 5.70175C6.30273 5.8985 6.14715 6.13803 6.04946 6.40301C5.96617 6.61791 5.86703 6.94091 5.84002 7.53553C5.81075 8.17861 5.80444 8.37147 5.80444 10.0001C5.80444 11.6285 5.81075 11.8214 5.84002 12.4646C5.86703 13.0593 5.96617 13.3821 6.04946 13.597C6.14715 13.862 6.30257 14.1015 6.50473 14.2983C6.70107 14.5008 6.94011 14.6567 7.20454 14.7545C7.41899 14.8381 7.74132 14.9374 8.3347 14.9645C8.97645 14.9938 9.16874 15 10.794 15C12.4193 15 12.6118 14.9938 13.2534 14.9645C13.8468 14.9374 14.1691 14.8381 14.3836 14.7545C14.9144 14.5493 15.3339 14.1289 15.5386 13.597C15.6219 13.3821 15.7211 13.0593 15.7482 12.4646C15.7775 11.8214 15.7836 11.6285 15.7836 10.0001C15.7836 8.37147 15.7775 8.17861 15.7482 7.53553C15.7212 6.94091 15.6221 6.61791 15.5386 6.40301ZM10.7941 13C9.14066 13 7.80028 11.657 7.80028 10C7.80028 8.34304 9.14066 7 10.7941 7C12.4474 7 13.7878 8.34304 13.7878 10C13.7878 11.657 12.4474 13 10.7941 13ZM12.7899 6.5C12.7899 6.77613 13.0133 7 13.2888 7C13.5644 7 13.7877 6.77613 13.7878 6.5C13.7878 6.22387 13.5644 6 13.2888 6C13.0133 6 12.7899 6.22387 12.7899 6.5Z" fill="#2D415E"/>
    <path fill-rule="evenodd" clip-rule="evenodd" d="M0.814941 10C0.814941 4.478 5.28363 0 10.7941 0C16.3047 0 20.7734 4.478 20.7734 10C20.7734 15.522 16.3047 20 10.7941 20C5.28363 20 0.814941 15.522 0.814941 10ZM16.2235 13.7613C16.3651 13.396 16.4621 12.9787 16.4898 12.3674C16.5178 11.7551 16.5244 11.5594 16.5244 10C16.5244 8.44055 16.5178 8.24493 16.49 7.6326C16.4621 7.02133 16.3653 6.604 16.2235 6.23871C16.0798 5.85556 15.8541 5.50858 15.5627 5.22171C15.2764 4.9295 14.93 4.70337 14.5476 4.55917C14.1831 4.41742 13.7666 4.32037 13.1566 4.2926C12.5456 4.26453 12.3504 4.25781 10.7941 4.25781C9.23794 4.25781 9.04273 4.26453 8.43167 4.29245C7.82167 4.32037 7.40521 4.41742 7.04068 4.55933C6.65833 4.70352 6.31191 4.9295 6.02579 5.22171C5.7342 5.50842 5.50853 5.85556 5.36463 6.23871C5.22302 6.604 5.12618 7.02133 5.09847 7.6326C5.07045 8.24493 5.0639 8.44055 5.0639 10C5.0639 11.5594 5.07045 11.7551 5.09862 12.3676C5.12633 12.9787 5.22333 13.3961 5.36494 13.7613C5.50883 14.1444 5.73435 14.4916 6.02579 14.7783C6.31206 15.0705 6.65833 15.2965 7.04083 15.4407C7.40521 15.5826 7.82183 15.6796 8.43167 15.7076C9.04288 15.7355 9.23794 15.7422 10.7943 15.7422C12.3505 15.7422 12.5457 15.7355 13.1568 15.7076C13.7666 15.6796 14.1832 15.5826 14.5476 15.4407C15.3173 15.1424 15.9258 14.5326 16.2235 13.7613Z" fill="#2D415E"/>
</svg>
