<svg width="38" height="38" viewBox="0 0 38 38" fill="none" xmlns="http://www.w3.org/2000/svg">
    <path d="M27.7137 0H10.2862C4.61431 0 0 4.61431 0 10.2862V27.714C0 33.3856 4.61431 37.9999 10.2862 37.9999H27.714C33.3856 37.9999 37.9999 33.3856 37.9999 27.714V10.2862C37.9999 4.61431 33.3856 0 27.7137 0V0ZM19 29.3903C13.2706 29.3903 8.60965 24.7293 8.60965 19C8.60965 13.2706 13.2706 8.60965 19 8.60965C24.7293 8.60965 29.3903 13.2706 29.3903 19C29.3903 24.7293 24.7293 29.3903 19 29.3903V29.3903ZM29.6387 11.06C27.9456 11.06 26.5685 9.68292 26.5685 7.98981C26.5685 6.2967 27.9456 4.9193 29.6387 4.9193C31.3318 4.9193 32.7092 6.2967 32.7092 7.98981C32.7092 9.68292 31.3318 11.06 29.6387 11.06Z" fill="white"/>
    <path d="M19 10.8374C14.4993 10.8374 10.8374 14.499 10.8374 19C10.8374 23.5007 14.4993 27.1626 19 27.1626C23.501 27.1626 27.1626 23.5007 27.1626 19C27.1626 14.499 23.501 10.8374 19 10.8374V10.8374Z" fill="white"/>
    <path d="M29.6389 7.14734C29.1744 7.14734 28.7964 7.52539 28.7964 7.98984C28.7964 8.45428 29.1744 8.83233 29.6389 8.83233C30.1036 8.83233 30.4817 8.45457 30.4817 7.98984C30.4817 7.5251 30.1036 7.14734 29.6389 7.14734Z" fill="white"/>
</svg>
