<svg width="58" height="32" viewBox="0 0 58 32" fill="none" xmlns="http://www.w3.org/2000/svg">
    <path d="M0.5 5C0.5 2.51472 2.51472 0.5 5 0.5H53C55.4853 0.5 57.5 2.51472 57.5 5V27C57.5 29.4853 55.4853 31.5 53 31.5H5C2.51472 31.5 0.5 29.4853 0.5 27V5Z" stroke="#DCDCDC"/>
    <path d="M13.375 15.8906H14.6719C15.5417 15.8906 16.1719 15.7292 16.5625 15.4062C16.9531 15.0833 17.1484 14.6042 17.1484 13.9688C17.1484 13.3229 16.9375 12.8594 16.5156 12.5781C16.0938 12.2969 15.4583 12.1562 14.6094 12.1562H13.375V15.8906ZM13.375 17.4375V22H11.5078V10.5781H14.7344C16.2083 10.5781 17.2995 10.8542 18.0078 11.4062C18.7161 11.9583 19.0703 12.7917 19.0703 13.9062C19.0703 15.3281 18.3307 16.3411 16.8516 16.9453L20.0781 22H17.9531L15.2188 17.4375H13.375ZM30.6953 10.5781V17.9688C30.6953 18.8125 30.513 19.5521 30.1484 20.1875C29.7891 20.8177 29.2656 21.3047 28.5781 21.6484C27.8958 21.987 27.0781 22.1562 26.125 22.1562C24.7083 22.1562 23.6068 21.7812 22.8203 21.0312C22.0339 20.2812 21.6406 19.25 21.6406 17.9375V10.5781H23.5156V17.8047C23.5156 18.7474 23.7344 19.4427 24.1719 19.8906C24.6094 20.3385 25.2812 20.5625 26.1875 20.5625C27.9479 20.5625 28.8281 19.638 28.8281 17.7891V10.5781H30.6953Z" fill="#282828"/>
    <path d="M40 14L44 18L48 14" stroke="#F4CF87" stroke-width="2" stroke-linecap="round"/>
</svg>
