<svg width="168" height="50" viewBox="0 0 168 50" fill="none" xmlns="http://www.w3.org/2000/svg">
    <path fill-rule="evenodd" clip-rule="evenodd" d="M29.2607 5.92133C24.6067 2.53108 18.4179 0.835954 10.6943 0.835954H0L7.05525 6.13032H12.2539C15.472 6.13032 18.2694 6.59474 20.6459 7.52357C23.0224 8.40597 24.9781 10.2172 26.5129 12.9573C28.0477 15.6509 28.8151 19.5288 28.8151 24.5909C28.8151 31.7894 27.3298 36.7587 24.3592 39.4988C21.3886 42.2388 17.5267 43.6089 12.7737 43.6089H7.05525L0 48.8336H12.2539C18.9378 48.8336 24.6067 47.0223 29.2607 43.3999C33.9642 39.731 36.316 33.4613 36.316 24.5909C36.316 15.4883 33.9642 9.26514 29.2607 5.92133Z" fill="#282828"/>
    <path fill-rule="evenodd" clip-rule="evenodd" d="M60.7164 5.43369L65.9932 0.493598C64.3106 0.164533 62.4527 0 60.4193 0C57.3001 0 54.5028 0.534081 52.0273 1.60224C49.6012 2.6704 47.6951 4.15654 46.3088 6.06066C44.972 7.96477 44.3036 10.1243 44.3036 12.5393C44.3036 16.1153 45.5166 18.9483 47.9426 21.0381C50.3687 23.128 54.2057 24.916 59.4538 26.4022C62.4245 27.2381 64.6772 28.0741 66.212 28.91C67.7964 29.746 68.9104 30.698 69.554 31.7662C70.1976 32.7879 70.5194 34.0883 70.5194 35.6673C70.5194 38.4538 69.4797 40.5901 67.4003 42.0763C65.3208 43.516 62.6968 44.2358 59.5281 44.2358L54.1977 49.226C55.9072 49.5217 57.7087 49.6695 59.6024 49.6695C63.3652 49.6695 66.6081 49.0658 69.3312 47.8583C72.1038 46.6508 74.208 44.9789 75.6438 42.8426C77.1291 40.7062 77.8718 38.2448 77.8718 35.4583C77.8718 32.5789 77.2034 30.2104 75.8666 28.3527C74.5793 26.4486 72.8712 24.9625 70.7422 23.8943C68.6133 22.8262 65.9397 21.8277 62.7215 20.8988C59.6519 20.0164 57.3001 19.1805 55.6663 18.391C54.0819 17.6014 52.9927 16.7423 52.3986 15.8134C51.8045 14.8382 51.5074 13.6539 51.5074 12.2606C51.5074 10.0314 52.3738 8.33631 54.1067 7.17526C55.8396 6.01421 58.0428 5.43369 60.7164 5.43369Z" fill="#282828"/>
    <path d="M69.0628 1.60229L64.6077 6.06071L68.5623 7.17531L72.7371 2.99735L69.0628 1.60229Z" fill="#F4CF87"/>
    <path d="M7.05525 14.9073L0 21.9679V40.3915L7.05525 33.331V14.9073Z" fill="#F4CF87"/>
    <path d="M98.0944 14.5793C99.4294 14.5793 100.571 14.7665 101.519 15.1407C102.467 15.4963 103.386 16.0577 104.276 16.825L102.767 18.453C102.012 17.8729 101.268 17.4519 100.532 17.1899C99.8164 16.9092 99.0425 16.7688 98.2105 16.7688C97.1657 16.7688 96.3047 17.0027 95.6275 17.4706C94.9503 17.9384 94.6117 18.6215 94.6117 19.5197C94.6117 20.0811 94.7278 20.5583 94.96 20.9513C95.1922 21.3256 95.6178 21.6718 96.237 21.9899C96.8755 22.308 97.7945 22.6449 98.9941 23.0005C100.252 23.3747 101.297 23.7771 102.129 24.2075C102.961 24.6379 103.628 25.2367 104.131 26.004C104.654 26.7525 104.915 27.7069 104.915 28.8672C104.915 29.99 104.624 30.9818 104.044 31.8426C103.483 32.7035 102.661 33.3772 101.577 33.8637C100.513 34.3503 99.2456 34.5935 97.7752 34.5935C95.0083 34.5935 92.7446 33.7608 90.9839 32.0953L92.4931 30.4672C93.3057 31.1034 94.128 31.59 94.96 31.9268C95.792 32.245 96.7207 32.404 97.7461 32.404C98.9844 32.404 100.01 32.114 100.823 31.5339C101.635 30.935 102.041 30.0742 102.041 28.9514C102.041 28.3151 101.916 27.7911 101.664 27.3794C101.413 26.949 100.977 26.5654 100.358 26.2286C99.7584 25.8917 98.878 25.5549 97.7171 25.218C95.6662 24.6192 94.1667 23.8987 93.2186 23.0566C92.2706 22.2145 91.7965 21.0729 91.7965 19.632C91.7965 18.6589 92.0577 17.7887 92.5801 17.0214C93.1219 16.2542 93.8668 15.6554 94.8149 15.2249C95.7823 14.7945 96.8755 14.5793 98.0944 14.5793Z" fill="#282828"/>
    <path d="M120.206 19.1267C121.599 19.1267 122.682 19.5291 123.456 20.3338C124.249 21.1384 124.646 22.2425 124.646 23.6461V34.2567H121.976V24.011C121.976 22.963 121.763 22.2238 121.337 21.7934C120.931 21.363 120.331 21.1478 119.538 21.1478C118.745 21.1478 118.039 21.3724 117.419 21.8215C116.8 22.2706 116.22 22.9069 115.678 23.7303V34.2567H113.008V13.5407L115.678 13.26V21.5127C116.878 19.9221 118.387 19.1267 120.206 19.1267Z" fill="#282828"/>
    <path d="M139.937 19.1267C142.085 19.1267 143.749 19.8191 144.929 21.2039C146.129 22.5888 146.729 24.4695 146.729 26.8461C146.729 28.3806 146.458 29.7374 145.916 30.9163C145.374 32.0766 144.591 32.9842 143.565 33.6391C142.54 34.2754 141.321 34.5935 139.908 34.5935C137.761 34.5935 136.087 33.9011 134.887 32.5163C133.688 31.1315 133.088 29.2508 133.088 26.8742C133.088 25.3397 133.359 23.9923 133.901 22.832C134.442 21.6531 135.226 20.7455 136.251 20.1092C137.277 19.4542 138.506 19.1267 139.937 19.1267ZM139.937 21.2039C137.287 21.2039 135.961 23.094 135.961 26.8742C135.961 30.6356 137.277 32.5163 139.908 32.5163C142.54 32.5163 143.855 30.6263 143.855 26.8461C143.855 23.0847 142.549 21.2039 139.937 21.2039Z" fill="#282828"/>
    <path d="M162.341 19.1267C164.295 19.1267 165.726 19.8004 166.636 21.1478C167.545 22.4952 168 24.3946 168 26.8461C168 29.1666 167.477 31.038 166.433 32.4602C165.388 33.8824 163.908 34.5935 161.992 34.5935C160.29 34.5935 158.955 34.0321 157.987 32.9093V39.9269L155.317 40.2357V19.4636H157.61L157.813 21.4566C158.374 20.708 159.051 20.1373 159.845 19.7443C160.638 19.3326 161.47 19.1267 162.341 19.1267ZM161.354 32.4883C163.869 32.4883 165.127 30.6075 165.127 26.8461C165.127 23.0659 163.975 21.1759 161.673 21.1759C160.918 21.1759 160.232 21.3911 159.612 21.8215C158.993 22.2519 158.451 22.804 157.987 23.4776V30.6917C158.374 31.2719 158.858 31.721 159.438 32.0391C160.019 32.3385 160.657 32.4883 161.354 32.4883Z" fill="#282828"/>
</svg>
