<svg width="12" height="11" viewBox="0 0 12 11" fill="none" xmlns="http://www.w3.org/2000/svg">
    <path d="M0.239045 1.41667C1.94161 2.68471 4.74739 5.1628 5.62544 5.85839C5.74331 5.95227 5.86974 6 6.00099 6C6.13197 6 6.25818 5.95272 6.37578 5.85928C7.25459 5.16301 10.0319 2.68471 11.7344 1.41667C11.8404 1.33787 12.0668 1.44657 11.981 1.35024C11.7826 1.12763 11.4868 1 11.1698 1H0.832177C0.515191 1 0.219381 1.12763 0.021019 1.35026C-0.0647995 1.44657 0.133043 1.33787 0.239045 1.41667Z" fill="white"/>
    <path d="M11.855 2.02474C11.7664 1.98096 11.6621 1.99623 11.5884 2.0631C9.76195 3.70649 7.33341 5.29856 6.6 6C6.18837 6.39439 5.81259 6.39491 5.4 6C4.61827 5.25241 1.90256 3.40434 0.411609 2.06307C0.337383 1.9962 0.232898 1.98145 0.145008 2.02471C0.0566484 2.06827 0 2.16208 0 2.26547V8.93859C0 9.52399 0.448477 10 1.00001 10H11C11.5515 10 12 9.52399 12 8.93859V2.26547C12 2.16208 11.9434 2.06802 11.855 2.02474Z" fill="white"/>
</svg>
