<svg width="66" height="66" viewBox="0 0 66 66" fill="none" xmlns="http://www.w3.org/2000/svg">
    <g clip-path="url(#clip0_636_896)">
        <path d="M65.4188 13.1124L45.4023 33L65.4188 52.8875C65.7806 52.1312 66.0001 51.2951 66.0001 50.4023V15.5976C66.0001 14.7047 65.7806 13.8687 65.4188 13.1124Z" fill="white"/>
        <path d="M60.1993 9.79688H5.80086C4.90792 9.79688 4.07197 10.0164 3.31567 10.3782L28.8988 35.8325C31.1608 38.0945 34.8393 38.0945 37.1013 35.8325L62.6845 10.3782C61.9282 10.0164 61.0922 9.79688 60.1993 9.79688Z" fill="white"/>
        <path d="M0.581367 13.1124C0.219527 13.8687 0 14.7047 0 15.5976V50.4023C0 51.2952 0.219527 52.1313 0.581367 52.8875L20.5978 33L0.581367 13.1124Z" fill="white"/>
        <path d="M42.668 35.7345L39.8356 38.567C36.0665 42.336 29.9335 42.336 26.1644 38.567L23.3321 35.7345L3.31567 55.622C4.07197 55.9839 4.90792 56.2034 5.80086 56.2034H60.1993C61.0922 56.2034 61.9282 55.9839 62.6845 55.622L42.668 35.7345Z" fill="white"/>
    </g>
    <defs>
        <clipPath id="clip0_636_896">
            <rect width="66" height="66" fill="white"/>
        </clipPath>
    </defs>
</svg>
