<svg width="25" height="25" viewBox="0 0 25 25" fill="none" xmlns="http://www.w3.org/2000/svg">
    <path d="M17.0136 4.15646H14.5586C14.6455 3.07731 14.278 1.96813 13.4543 1.1444C11.964 -0.345837 9.53911 -0.345837 8.04878 1.1444L7.28691 1.90626L6.52505 1.1444C5.03472 -0.345935 2.60981 -0.345886 1.11953 1.14445C0.397607 1.86632 0 2.82623 0 3.84718C0 4.86813 0.397559 5.82799 1.11953 6.54991L2.96675 8.39713C2.35576 9.54615 2.03472 10.8291 2.03472 12.1429C2.03472 16.5466 5.61743 20.1293 10.0212 20.1293H11.2147L16.4195 24.9733V20.1293H17.0136C21.4173 20.1293 25 16.5466 25 12.1429C25 7.73917 21.4173 4.15646 17.0136 4.15646ZM2.1562 2.18107C2.61558 1.72169 3.21885 1.49205 3.82227 1.49205C4.42554 1.49205 5.02905 1.72179 5.48833 2.18107L7.28687 3.9796L9.0854 2.18107C10.0041 1.26246 11.4988 1.26241 12.4176 2.18112C12.8626 2.62614 13.1077 3.21779 13.1077 3.84718C13.1077 4.47653 12.8626 5.06823 12.4176 5.51325L7.28691 10.644L2.1562 5.51325C1.23755 4.59454 1.23755 3.09977 2.1562 2.18107ZM17.0136 18.6632H14.9534V21.6061L11.7915 18.6632H10.0212C6.42583 18.6632 3.50083 15.7382 3.50083 12.1429C3.50083 11.223 3.69346 10.322 4.06245 9.49279L7.28696 12.7173L13.4543 6.54991C13.7346 6.26969 13.962 5.95641 14.1369 5.62252H17.0136C20.6089 5.62252 23.534 8.54752 23.534 12.1429C23.534 15.7382 20.6089 18.6632 17.0136 18.6632Z" fill="#848484"/>
    <path d="M9.5188 11.726H11.0683V13.1921H9.5188V11.726Z" fill="#848484"/>
    <path d="M12.9399 11.726H14.4894V13.1921H12.9399V11.726Z" fill="#848484"/>
    <path d="M16.3611 11.726H17.9105V13.1921H16.3611V11.726Z" fill="#848484"/>
</svg>
