<svg width="18" height="19" viewBox="0 0 18 19" fill="none" xmlns="http://www.w3.org/2000/svg">
    <circle cx="9" cy="10" r="9" fill="#F4CF87"/>
    <path d="M12.0137 7.30273C12.0137 7.9362 11.8291 8.46484 11.46 8.88867C11.0908 9.30794 10.5713 9.59049 9.90137 9.73633V9.79102C10.7035 9.89128 11.305 10.1419 11.7061 10.543C12.1071 10.9395 12.3076 11.4681 12.3076 12.1289C12.3076 13.0905 11.9681 13.8333 11.2891 14.3574C10.61 14.877 9.64388 15.1367 8.39062 15.1367C7.2832 15.1367 6.34896 14.9567 5.58789 14.5967V13.168C6.01172 13.3776 6.46061 13.5394 6.93457 13.6533C7.40853 13.7673 7.86426 13.8242 8.30176 13.8242C9.0765 13.8242 9.65527 13.6807 10.0381 13.3936C10.4209 13.1064 10.6123 12.6621 10.6123 12.0605C10.6123 11.5273 10.4004 11.1354 9.97656 10.8848C9.55273 10.6341 8.88737 10.5088 7.98047 10.5088H7.1123V9.20312H7.99414C9.58919 9.20312 10.3867 8.65169 10.3867 7.54883C10.3867 7.12044 10.2477 6.79004 9.96973 6.55762C9.69173 6.3252 9.28158 6.20898 8.73926 6.20898C8.361 6.20898 7.99642 6.26367 7.64551 6.37305C7.2946 6.47786 6.87988 6.68522 6.40137 6.99512L5.61523 5.87402C6.53125 5.19954 7.59538 4.8623 8.80762 4.8623C9.81478 4.8623 10.6009 5.07878 11.166 5.51172C11.7311 5.94466 12.0137 6.54167 12.0137 7.30273Z" fill="#282828"/>
</svg>
