<svg width="18" height="19" viewBox="0 0 18 19" fill="none" xmlns="http://www.w3.org/2000/svg">
    <circle cx="9" cy="10" r="9" fill="#F4CF87"/>
    <path d="M12.3896 15H5.61523V13.7832L8.19238 11.1924C8.95345 10.4131 9.45703 9.86165 9.70312 9.53809C9.95378 9.20996 10.1361 8.90234 10.25 8.61523C10.3639 8.32812 10.4209 8.02051 10.4209 7.69238C10.4209 7.24121 10.2842 6.88574 10.0107 6.62598C9.74186 6.36621 9.36816 6.23633 8.88965 6.23633C8.50684 6.23633 8.13542 6.30697 7.77539 6.44824C7.41992 6.58952 7.00749 6.84473 6.53809 7.21387L5.66992 6.1543C6.22591 5.6849 6.76595 5.35221 7.29004 5.15625C7.81413 4.96029 8.3724 4.8623 8.96484 4.8623C9.89453 4.8623 10.6396 5.10612 11.2002 5.59375C11.7607 6.07682 12.041 6.72852 12.041 7.54883C12.041 8 11.959 8.42839 11.7949 8.83398C11.6354 9.23958 11.387 9.65885 11.0498 10.0918C10.7171 10.5202 10.1611 11.1012 9.38184 11.835L7.64551 13.5166V13.585H12.3896V15Z" fill="#282828"/>
</svg>
