<svg width="32" height="32" viewBox="0 0 32 32" fill="none" xmlns="http://www.w3.org/2000/svg">
    <path d="M31.9464 19.5128L31.9512 19.5112L26.6974 8.04784L27.9715 7.41371L27.4947 6.45905L26.2526 7.07771L26.0846 6.71131C25.9618 6.44358 25.6453 6.32605 25.3775 6.44878C25.2614 6.50205 25.1683 6.59518 25.115 6.71131L24.9651 7.03878C24.0611 6.61891 23.0765 6.40105 22.0798 6.40038H17.5999V5.33372H18.6665V4.26707H17.7497L18.1332 2.73268C18.4276 1.55449 17.7112 0.3607 16.533 0.0662354C15.3548 -0.228162 14.161 0.488232 13.8666 1.66642C13.7791 2.01642 13.7791 2.38262 13.8666 2.73261L14.25 4.267H13.3332V5.33366H14.3999V6.40032H9.92259C8.92487 6.40112 7.93927 6.61951 7.03462 7.04031L6.88475 6.71285C6.76202 6.44512 6.44542 6.32758 6.17769 6.45032C6.06156 6.50358 5.96842 6.59671 5.91516 6.71285L5.74716 7.07924L4.50504 6.45792L4.02824 7.41364L5.30236 8.05044L0.04854 19.5112C0.0161403 19.5809 -0.000392908 19.6568 7.08831e-06 19.7336C0.0023404 21.7945 1.67246 23.4646 3.73331 23.4669H9.0666C11.1274 23.4646 12.7976 21.7945 12.7999 19.7336C12.7986 19.657 12.7804 19.5816 12.7466 19.5128L7.47834 8.00624C8.24414 7.65077 9.07833 7.46677 9.92259 7.46704H14.3999V26.9794L12.5791 28.8002H10.6666C9.1946 28.8019 8.00167 29.9949 7.99994 31.4668C7.99994 31.7614 8.23874 32.0002 8.53327 32.0002H23.4665C23.761 32.0002 23.9998 31.7614 23.9998 31.4668C23.9981 29.9949 22.8052 28.8019 21.3332 28.8002H19.4206L17.5999 26.9794V7.46704H22.0798C22.9241 7.46677 23.7583 7.65077 24.5241 8.00624L19.2484 19.5112C19.216 19.5809 19.1994 19.6568 19.1998 19.7336C19.2022 21.7945 20.8723 23.4646 22.9332 23.4669H28.2664C30.3273 23.4646 31.9974 21.7945 31.9997 19.7336C31.9985 19.657 31.9803 19.5816 31.9464 19.5128ZM9.0666 22.4002H3.73331C2.46652 22.3988 1.375 21.5078 1.12 20.2669H11.6799C11.425 21.5078 10.3334 22.3988 9.0666 22.4002ZM11.4356 19.2003H1.36426L6.26342 8.51183C6.35289 8.53583 6.44702 8.53583 6.53649 8.51183L11.4356 19.2003ZM15.1076 1.50229C15.5229 1.00949 16.2591 0.946761 16.7519 1.36209C16.8025 1.40476 16.8495 1.45169 16.8921 1.50229C17.1079 1.77669 17.1841 2.13562 17.0985 2.47402L16.65 4.26707H15.3497L14.9012 2.47402C14.8157 2.13562 14.8919 1.77669 15.1076 1.50229ZM15.4665 6.40038V5.33372H16.5332V6.40038H15.4665ZM16.5332 7.46704V26.6669H15.4665V7.46704H16.5332V7.46704ZM21.3332 29.8669C22.011 29.8677 22.6151 30.2947 22.842 30.9335H9.1578C9.38466 30.2947 9.98872 29.8677 10.6666 29.8669H21.3332ZM17.9124 28.8002H14.0874L15.154 27.7335H16.8457L17.9124 28.8002ZM25.4622 8.51343C25.5503 8.54443 25.6469 8.54043 25.7321 8.50223L30.6355 19.2003H20.5641L25.4622 8.51343ZM28.2664 22.4002H22.9332C21.6664 22.3988 20.5748 21.5078 20.3198 20.2669H30.8797C30.6248 21.5078 29.5332 22.3988 28.2664 22.4002Z" fill="#282828"/>
</svg>
