<svg width="50" height="49" viewBox="0 0 50 49" fill="none" xmlns="http://www.w3.org/2000/svg">
    <path fill-rule="evenodd" clip-rule="evenodd" d="M0.929932 24.5C0.929932 10.969 11.8989 0 25.4299 0C38.9609 0 49.9299 10.969 49.9299 24.5C49.9299 38.031 38.9609 49 25.4299 49C11.8989 49 0.929932 38.031 0.929932 24.5ZM24.2157 32.4734L31.1064 25.5828C31.7044 24.9848 31.7044 24.0154 31.1065 23.4173L24.2158 16.5267C23.6179 15.9287 22.6483 15.9287 22.0504 16.5267C21.4523 17.1246 21.4523 18.0942 22.0504 18.6922L27.8582 24.5001L22.0504 30.308C21.083 31.2753 21.7812 32.922 23.1331 32.922C23.5249 32.922 23.9168 32.7724 24.2157 32.4734Z" fill="#FFCC2A"/>
</svg>
