<svg width="32" height="74" viewBox="0 0 32 74" fill="none" xmlns="http://www.w3.org/2000/svg">
    <path d="M22.9266 2.75404C20.2571 2.73977 17.7195 3.91213 16 5.954C14.2912 3.89817 11.7465 2.72248 9.07337 2.75404C4.06227 2.75404 0 6.81631 0 11.8274C0 20.4148 14.9873 28.7995 15.5949 29.1236C15.8401 29.2874 16.1598 29.2874 16.4051 29.1236C17.0127 28.7995 32 20.5363 32 11.8274C32 6.81631 27.9377 2.75404 22.9266 2.75404ZM16 27.5034C13.6506 26.1262 1.62026 18.7945 1.62026 11.8274C1.62026 7.71118 4.95714 4.37421 9.07344 4.37421C11.5942 4.34111 13.9531 5.61255 15.3114 7.73622C15.5872 8.11651 16.1191 8.20125 16.4994 7.92539C16.5721 7.87267 16.636 7.80886 16.6886 7.73622C18.9413 4.2911 23.5603 3.32444 27.0054 5.57712C29.1144 6.95617 30.3839 9.30747 30.3797 11.8273C30.3797 18.8755 18.3493 26.1666 16 27.5034Z" fill="#282828"/>
    <g clip-path="url(#clip0_636_697)">
        <path d="M31.9464 61.5127L31.9512 61.5111L26.6974 50.0477L27.9715 49.4136L27.4947 48.4589L26.2526 49.0776L26.0846 48.7112C25.9618 48.4434 25.6453 48.3259 25.3775 48.4486C25.2614 48.5019 25.1683 48.595 25.115 48.7112L24.9651 49.0386C24.0611 48.6188 23.0765 48.4009 22.0798 48.4002H17.5999V47.3336H18.6665V46.2669H17.7497L18.1332 44.7325C18.4276 43.5543 17.7112 42.3605 16.533 42.0661C15.3548 41.7717 14.161 42.4881 13.8666 43.6663C13.7791 44.0163 13.7791 44.3825 13.8666 44.7325L14.25 46.2668H13.3332V47.3335H14.3999V48.4002H9.92259C8.92487 48.401 7.93927 48.6194 7.03462 49.0402L6.88475 48.7127C6.76202 48.445 6.44542 48.3274 6.17769 48.4502C6.06156 48.5034 5.96842 48.5966 5.91516 48.7127L5.74716 49.0791L4.50504 48.4578L4.02824 49.4135L5.30236 50.0503L0.04854 61.5111C0.0161403 61.5807 -0.000392908 61.6567 7.08831e-06 61.7335C0.0023404 63.7943 1.67246 65.4644 3.73331 65.4668H9.0666C11.1274 65.4644 12.7976 63.7943 12.7999 61.7335C12.7986 61.6569 12.7804 61.5815 12.7466 61.5127L7.47834 50.0061C8.24414 49.6506 9.07833 49.4666 9.92259 49.4669H14.3999V68.9793L12.5791 70.8H10.6666C9.1946 70.8018 8.00167 71.9947 7.99994 73.4667C7.99994 73.7612 8.23874 74 8.53327 74H23.4665C23.761 74 23.9998 73.7612 23.9998 73.4667C23.9981 71.9947 22.8052 70.8018 21.3332 70.8H19.4206L17.5999 68.9793V49.4669H22.0798C22.9241 49.4666 23.7583 49.6506 24.5241 50.0061L19.2484 61.5111C19.216 61.5807 19.1994 61.6567 19.1998 61.7335C19.2022 63.7943 20.8723 65.4644 22.9332 65.4668H28.2664C30.3273 65.4644 31.9974 63.7943 31.9997 61.7335C31.9985 61.6569 31.9803 61.5815 31.9464 61.5127ZM9.0666 64.4001H3.73331C2.46652 64.3987 1.375 63.5076 1.12 62.2668H11.6799C11.425 63.5076 10.3334 64.3987 9.0666 64.4001ZM11.4356 61.2001H1.36426L6.26342 50.5117C6.35289 50.5357 6.44702 50.5357 6.53649 50.5117L11.4356 61.2001ZM15.1076 43.5021C15.5229 43.0093 16.2591 42.9466 16.7519 43.3619C16.8025 43.4046 16.8495 43.4515 16.8921 43.5021C17.1079 43.7765 17.1841 44.1355 17.0985 44.4739L16.65 46.2669H15.3497L14.9012 44.4739C14.8157 44.1355 14.8919 43.7765 15.1076 43.5021ZM15.4665 48.4002V47.3336H16.5332V48.4002H15.4665ZM16.5332 49.4669V68.6667H15.4665V49.4669H16.5332ZM21.3332 71.8667C22.011 71.8675 22.6151 72.2946 22.842 72.9334H9.1578C9.38466 72.2946 9.98872 71.8675 10.6666 71.8667H21.3332ZM17.9124 70.8H14.0874L15.154 69.7334H16.8457L17.9124 70.8ZM25.4622 50.5133C25.5503 50.5443 25.6469 50.5403 25.7321 50.5021L30.6355 61.2001H20.5641L25.4622 50.5133ZM28.2664 64.4001H22.9332C21.6664 64.3987 20.5748 63.5076 20.3198 62.2668H30.8797C30.6248 63.5076 29.5332 64.3987 28.2664 64.4001Z" fill="#282828"/>
    </g>
    <defs>
        <clipPath id="clip0_636_697">
            <rect width="32" height="32" fill="white" transform="translate(0 42)"/>
        </clipPath>
    </defs>
</svg>
