<svg width="16" height="15" viewBox="0 0 16 15" fill="none" xmlns="http://www.w3.org/2000/svg">
    <path fill-rule="evenodd" clip-rule="evenodd" d="M11.0867 9.66729L15.4441 14.0247C15.5662 14.1467 15.5662 14.3446 15.4441 14.4666L15.0023 14.9085C14.8802 15.0305 14.6824 15.0305 14.5603 14.9085L10.2029 10.5511C9.18261 11.3775 7.88546 11.875 6.47317 11.875C3.19924 11.875 0.535645 9.21146 0.535645 5.93752C0.535645 2.66359 3.19921 0 6.47314 0C9.74708 0 12.4107 2.66359 12.4107 5.93752C12.4107 7.34981 11.9132 8.64696 11.0867 9.66729ZM1.78566 5.93752C1.78566 8.52236 3.88833 10.625 6.47317 10.625C9.05801 10.625 11.1607 8.52236 11.1607 5.93752C11.1607 3.35268 9.05801 1.25001 6.47317 1.25001C3.88833 1.25001 1.78566 3.35268 1.78566 5.93752Z" fill="#2C2C2C"/>
</svg>
