<svg width="41" height="41" viewBox="0 0 41 41" fill="none" xmlns="http://www.w3.org/2000/svg">
    <rect width="41" height="41" rx="5" fill="#F4CF87"/>
    <g clip-path="url(#clip0_636_727)">
        <path d="M28.2146 27.6889C26.5636 27.6889 25.2192 29.0332 25.2192 30.6843C25.2192 32.3353 26.5635 33.6797 28.2146 33.6797C29.8657 33.6797 31.2099 32.3353 31.2099 30.6843C31.2099 29.0332 29.8656 27.6889 28.2146 27.6889ZM28.2146 32.4815C27.2237 32.4815 26.4174 31.6751 26.4174 30.6843C26.4174 29.6934 27.2237 28.887 28.2146 28.887C29.2055 28.887 30.0118 29.6934 30.0118 30.6843C30.0118 31.6751 29.2054 32.4815 28.2146 32.4815Z" fill="#282828"/>
        <path d="M16.2331 27.6889C14.5821 27.6889 13.2378 29.0332 13.2378 30.6843C13.2378 32.3353 14.5821 33.6797 16.2331 33.6797C17.8842 33.6797 19.2285 32.3353 19.2285 30.6843C19.2285 29.0333 17.8842 27.6889 16.2331 27.6889ZM16.2331 32.4815C15.2423 32.4815 14.4359 31.6751 14.4359 30.6843C14.4359 29.6934 15.2423 28.887 16.2331 28.887C17.224 28.887 18.0304 29.6934 18.0304 30.6843C18.0304 31.6751 17.224 32.4815 16.2331 32.4815Z" fill="#282828"/>
        <path d="M30.6109 25.2926H16.783C15.3608 25.2926 14.1255 24.2801 13.8464 22.8843L10.8294 7.80203C10.7731 7.52166 10.5275 7.32037 10.2424 7.32037H6.64792C6.31723 7.32037 6.04883 7.58878 6.04883 7.91947C6.04883 8.25016 6.31723 8.51856 6.64792 8.51856H9.75111L12.671 23.1204C13.0616 25.0733 14.7917 26.4908 16.783 26.4908H30.6109C30.9415 26.4908 31.2099 26.2224 31.2099 25.8917C31.2099 25.561 30.9415 25.2926 30.6109 25.2926Z" fill="#282828"/>
        <path d="M33.4564 11.1173C33.3425 10.9891 33.1796 10.9149 33.0071 10.9149H11.4404C11.1097 10.9149 10.8413 11.1833 10.8413 11.5139C10.8413 11.8446 11.1097 12.113 11.4404 12.113H32.3289L31.477 18.9256C31.3644 19.8231 30.5976 20.5 29.693 20.5H13.2376C12.9069 20.5 12.6385 20.7684 12.6385 21.0991C12.6385 21.4298 12.9069 21.6982 13.2376 21.6982H29.693C31.2002 21.6982 32.4787 20.5707 32.6656 19.0742L33.6013 11.5882C33.6229 11.418 33.5702 11.2455 33.4564 11.1173Z" fill="#282828"/>
    </g>
    <defs>
        <clipPath id="clip0_636_727">
            <rect width="27.5574" height="27.5574" fill="white" transform="translate(6.04883 6.72131)"/>
        </clipPath>
    </defs>
</svg>
