<svg width="32" height="32" viewBox="0 0 32 32" fill="none" xmlns="http://www.w3.org/2000/svg">
    <g clip-path="url(#clip0_636_475)">
        <path d="M25.739 24.3479C23.8218 24.3479 22.2607 25.9089 22.2607 27.8261C22.2607 29.7433 23.8217 31.3045 25.739 31.3045C27.6562 31.3045 29.2172 29.7434 29.2172 27.8261C29.2172 25.9089 27.6562 24.3479 25.739 24.3479ZM25.739 29.9131C24.5884 29.9131 23.652 28.9768 23.652 27.8261C23.652 26.6755 24.5884 25.7392 25.739 25.7392C26.8896 25.7392 27.8259 26.6755 27.8259 27.8261C27.8259 28.9768 26.8896 29.9131 25.739 29.9131Z" fill="#282828"/>
        <path d="M11.8259 24.3479C9.9087 24.3479 8.34766 25.9089 8.34766 27.8261C8.34766 29.7433 9.9087 31.3045 11.8259 31.3045C13.7431 31.3045 15.3041 29.7434 15.3041 27.8262C15.3041 25.909 13.7432 24.3479 11.8259 24.3479ZM11.8259 29.9131C10.6753 29.9131 9.73894 28.9768 9.73894 27.8261C9.73894 26.6755 10.6753 25.7392 11.8259 25.7392C12.9765 25.7392 13.9129 26.6755 13.9129 27.8261C13.9129 28.9768 12.9765 29.9131 11.8259 29.9131Z" fill="#282828"/>
        <path d="M28.5218 21.5652H12.4647C10.8132 21.5652 9.3788 20.3895 9.0546 18.7686L5.55131 1.25486C5.4859 0.929296 5.2007 0.695557 4.86959 0.695557H0.695675C0.311674 0.695557 0 1.00723 0 1.39123C0 1.77523 0.311674 2.08691 0.695675 2.08691H4.29914L7.68973 19.0427C8.14332 21.3105 10.1523 22.9565 12.4647 22.9565H28.5218C28.9058 22.9565 29.2174 22.6448 29.2174 22.2608C29.2174 21.8768 28.9058 21.5652 28.5218 21.5652Z" fill="#282828"/>
        <path d="M31.8264 5.10474C31.6942 4.95585 31.505 4.86963 31.3046 4.86963H6.2611C5.8771 4.86963 5.56543 5.1813 5.56543 5.5653C5.56543 5.9493 5.8771 6.26091 6.2611 6.26091H30.5171L29.5279 14.1719C29.3971 15.214 28.5067 16 27.4563 16H8.34806C7.96406 16 7.65239 16.3117 7.65239 16.6957C7.65239 17.0797 7.96406 17.3914 8.34806 17.3914H27.4563C29.2065 17.3914 30.6911 16.0821 30.9081 14.3444L31.9947 5.65152C32.0197 5.45391 31.9586 5.25356 31.8264 5.10474Z" fill="#282828"/>
    </g>
    <defs>
        <clipPath id="clip0_636_475">
            <rect width="32" height="32" fill="white"/>
        </clipPath>
    </defs>
</svg>
