<svg width="62" height="62" viewBox="0 0 62 62" fill="none" xmlns="http://www.w3.org/2000/svg">
    <g clip-path="url(#clip0_636_552)">
        <path d="M53.0442 21.9306C53.5458 21.9306 53.9524 21.5241 53.9524 21.0224V10.8196C53.9524 10.363 53.6828 9.94847 53.2651 9.76296L31.469 0.0993118C31.1708 -0.0331648 30.8291 -0.0330437 30.5316 0.0990696L8.73457 9.76308C8.31716 9.94835 8.04761 10.363 8.04761 10.8196V29.6848C8.04761 36.736 10.1763 43.5223 14.2034 49.3102C18.2305 55.0982 23.8539 59.4531 30.4653 61.904C30.8101 62.0319 31.1901 62.0319 31.535 61.9039C38.1464 59.4529 43.7697 55.098 47.7968 49.3101C51.8238 43.5222 53.9526 36.7359 53.9526 29.6848V25.2608C53.9526 24.7591 53.5459 24.3526 53.0443 24.3526C52.5428 24.3526 52.1361 24.7591 52.1361 25.2608V29.6848C52.1361 43.1945 43.6461 55.4302 31.0002 60.1648C18.3529 55.4309 9.86389 43.1954 9.86389 29.6848V11.2493L31 1.8783L52.136 11.2493V21.0224C52.136 21.5241 52.5427 21.9306 53.0442 21.9306Z" fill="#282828"/>
        <path d="M35.6306 30.4024C35.9853 30.757 36.5604 30.757 36.9149 30.4024L39.9512 27.3661C40.5132 26.804 40.5132 25.8896 39.9512 25.3276L37.4936 22.8698C36.9317 22.3078 36.0173 22.3079 35.4552 22.8698L28.7288 29.5963L25.7514 26.6188C25.1894 26.0569 24.2749 26.0567 23.7129 26.6188L21.2551 29.0767C20.6932 29.6388 20.6933 30.5532 21.2552 31.1152L27.7095 37.5695C28.2717 38.1316 29.1859 38.1312 29.748 37.5695L33.8649 33.4525C34.2196 33.0977 34.2196 32.5228 33.8649 32.1681C33.5103 31.8135 32.9352 31.8135 32.5806 32.1681L28.7288 36.0201L22.8047 30.0959L24.7322 28.1685L27.7095 31.1459C28.2716 31.7081 29.186 31.7076 29.748 31.1459L36.4743 24.4194L38.4017 26.3469L35.6305 29.1181C35.2758 29.4728 35.2758 30.0477 35.6306 30.4024Z" fill="#F4CF87"/>
        <path d="M31 58.3279C31.5016 58.3279 31.9082 57.9213 31.9082 57.4197V44.3432C39.5246 43.8728 45.5771 37.5271 45.5771 29.7943C45.5771 22.0615 39.5247 15.7156 31.9082 15.2451V4.56223C31.9082 4.06053 31.5016 3.65402 31 3.65402C30.4984 3.65402 30.0918 4.06053 30.0918 4.56223V15.2457C28.0641 15.3728 26.071 15.923 24.2783 16.8561C23.8334 17.0877 23.6604 17.6361 23.892 18.081C24.1238 18.5262 24.6722 18.6991 25.117 18.4672C26.6763 17.6555 28.346 17.1853 30.0918 17.0647V21.4334C30.0918 21.9351 30.4984 22.3416 31 22.3416C31.5016 22.3416 31.9082 21.9351 31.9082 21.4334V17.0654C38.5223 17.5327 43.7607 23.0632 43.7607 29.7942C43.7607 36.525 38.5223 42.0555 31.9082 42.5228V40.3493C31.9082 39.8476 31.5016 39.4411 31 39.4411C30.4984 39.4411 30.0918 39.8476 30.0918 40.3493V42.5228C23.4777 42.0555 18.2393 36.525 18.2393 29.7942C18.2393 26.4301 19.537 23.2553 21.8935 20.8549C22.2449 20.497 22.2396 19.922 21.8816 19.5707C21.5237 19.2193 20.9486 19.2246 20.5973 19.5826C17.9054 22.3247 16.4229 25.9513 16.4229 29.7943C16.4229 37.5271 22.4754 43.8729 30.0918 44.3432V57.4195C30.0918 57.9212 30.4984 58.3279 31 58.3279Z" fill="#282828"/>
    </g>
    <defs>
        <clipPath id="clip0_636_552">
            <rect width="62" height="62" fill="white"/>
        </clipPath>
    </defs>
</svg>
